<?xml version="1.0" encoding="utf-8"?>
<!-- Generator: Adobe Illustrator 21.0.0, SVG Export Plug-In . SVG Version: 6.00 Build 0)  -->
<svg version="1.1" id="PRINT" xmlns="http://www.w3.org/2000/svg" xmlns:xlink="http://www.w3.org/1999/xlink" x="0px" y="0px"
	 viewBox="0 0 23.2 52" style="enable-background:new 0 0 23.2 52;" xml:space="preserve">
<style type="text/css">
	.st0{fill:#877272;}
</style>
<g>
	<path class="st0" d="M23.2,44.4c-0.1,0.1-0.1,0.3-0.3,0.5c-0.1,0.2-0.2,0.4-0.3,0.5c-0.1,0.2-0.2,0.3-0.3,0.4
		c0,0.1-0.1,0.1-0.1,0.2c0,0.1-0.1,0.2-0.1,0.3c-0.4,0.8-0.9,1.3-1.3,1.9c-0.5,0.6-0.9,1.2-1.3,1.9c-0.2,0.4-0.4,0.6-0.6,1
		c-0.1,0.2-0.2,0.4-0.3,0.6c-0.1,0.1-0.1,0.2-0.3,0.3c-0.2,0.1-0.5,0-0.5-0.1c-0.4-0.4-0.6-0.6-0.9-0.9c-0.3-0.3-0.5-0.6-0.7-0.9
		c-0.5-0.6-1-1.3-1.4-1.9c-0.1-0.1-0.1-0.2-0.3-0.3c-0.2-0.2-0.3-0.4-0.4-0.6L13.9,47c0-0.1-0.1-0.1-0.1-0.2
		c-0.1-0.1-0.2-0.3-0.3-0.4c-0.2-0.3-0.4-0.7-0.6-1c-0.1-0.2-0.2-0.3-0.3-0.5c0-0.1-0.1-0.1-0.2-0.2c-0.1-0.1-0.1-0.3,0-0.4l0,0
		c0,0,0.1,0,0.1,0c0,0,0,0,0,0c-0.1,0.2,0.1,0.1,0.3,0.4c0.1,0.1,0.3,0.3,0.4,0.4c0.3,0.3,0.5,0.5,0.8,0.8c0.1,0.1,0.3,0.3,0.4,0.4
		c0.1,0.1,0.1,0.2,0.2,0.3l0.2,0.2c0.1,0.1,0.2,0.2,0.3,0.3c0.1,0.1,0.4,0.3,0.5,0.5c0.3,0.4,0.4,0.6,0.6,1c0.2,0.3,0.4,0.6,0.6,1
		c0.2,0.3,0.5,0.6,0.7,1c0.2,0.3,0.4,0.7,0.6,0.9c0.1,0,0,0,0,0c0,0,0.1,0,0.1-0.1c0.1-0.1,0.2-0.3,0.3-0.4c0.2-0.3,0.4-0.7,0.6-1
		c0.2-0.3,0.3-0.7,0.4-1.1c0.1-0.4,0.3-0.7,0.5-1.1c0.3-0.8,1-1.3,1.4-1.9l0.2-0.2c0.1-0.1,0.1-0.2,0.2-0.3c0.1-0.2,0.3-0.3,0.5-0.4
		l0.5-0.3c0.1-0.1,0.1-0.1,0.2-0.2C22.9,44.4,23.1,44.3,23.2,44.4C23.2,44.3,23.2,44.3,23.2,44.4C23.2,44.4,23.2,44.4,23.2,44.4z"/>
	<path class="st0" d="M21.4,0c0,0.3,0.1,0.5,0.2,0.8c0.1,0.1,0.1,0.2,0.2,0.4c0.1,0.1,0.1,0.3,0.1,0.4c0,0.3,0.1,0.5,0.2,0.8
		l0.1,0.4c0,0.2,0,0.3,0,0.5c0,0.3,0,0.6,0,0.8c0.1,0.2,0.1,0.6,0.1,0.9c0,0.6,0,1.1,0,1.6l0-0.1l0,0c0,0.1,0,0.1,0,0.2l0,0
		c-0.1,0.3,0,0.7-0.1,1.1l-0.1,1.2c-0.1,0.8-0.2,1.6-0.5,2.4l-0.4,1.1c-0.1,0.4-0.3,0.8-0.5,1.1c-0.1,0.3-0.3,0.7-0.5,1.1l-0.6,1.1
		c-0.4,0.7-0.8,1.4-1.4,2c-0.3,0.3-0.7,0.6-0.8,0.8c0,0,0,0.1-0.1,0.1c0,0-0.1,0.1-0.1,0.2c-0.1,0.1-0.2,0.2-0.3,0.3
		c-0.2,0.1-0.3,0.2-0.5,0.3c-0.1,0-0.1,0.1-0.1,0.1c0,0-0.1,0.2-0.2,0.2c-0.2,0.2-0.3,0.3-0.5,0.4c-0.2,0.1-0.4,0.2-0.6,0.3
		c-0.2,0.1-0.4,0.2-0.5,0.2l-0.1,0.1c-0.1,0-0.1,0.1-0.2,0.1C14.1,21,14.1,21,14,21c-0.2,0.1-0.3,0.1-0.5,0.2
		c-0.3,0.2-0.7,0.3-1,0.5l-0.4-0.4l0,0l0,0c0.1-0.1,0.3-0.1,0.4,0c0.1,0.1,0.1,0.3,0,0.3c-0.2,0.2-0.5,0.3-0.7,0.4
		c-0.2,0.1-0.4,0.1-0.6,0.2c-0.4,0.1-0.9,0.2-1.2,0.3l0,0c0,0,0,0,0,0l-1.6,0.1c-0.5,0-1.1,0.1-1.7,0c-0.5-0.1-1.1-0.2-1.6-0.3
		c-0.3,0-0.5-0.1-0.8-0.1c-0.3,0-0.6-0.1-0.8-0.3c-0.2-0.2-0.4-0.1-0.7-0.2c-0.3-0.1-0.6-0.2-0.8-0.3c-0.2-0.2-0.5-0.3-0.7-0.4
		c-0.2-0.1-0.5-0.3-0.7-0.5c-0.5-0.4-0.7-1.1-0.5-1.7c0.1-0.3,0.2-0.6,0.4-0.8c0.2-0.2,0.4-0.4,0.7-0.6c1.2-0.5,2.3-0.4,3.4-0.3
		c0.6,0,1.1,0.2,1.7,0.3c0.2,0.1,0.6,0.1,0.8,0.2c0.3,0.1,0.5,0.2,0.7,0.3c0.1,0,0.2,0,0.4,0.1c0.2,0,0.3,0.1,0.5,0.2
		c0.1,0,0.1,0.1,0.2,0.2c0.1,0,0.1,0.1,0.1,0.1c0.1,0.1,0.2,0.1,0.3,0.2c0.4,0.2,1,0.4,1.5,0.7c0.2,0.2,0.5,0.4,0.7,0.6
		c0.1,0.1,0.3,0.2,0.6,0.4c0.2,0.2,0.4,0.3,0.7,0.7c0,0,0.1,0.1,0.1,0.1c0,0.1,0.1,0.1,0,0C12.8,21,12.6,21,12.8,21
		c0.2,0,0.4,0.1,0.6,0.3c0.3,0.3,0.4,0.5,0.6,0.7l0.5,0.6c0.3,0.4,0.7,0.8,1,1.4l0.1,0.2c0,0,0,0.1,0,0.1c0,0.1,0.1,0.1,0.2,0.3
		c0.2,0.3,0.4,0.6,0.5,0.8l0.6,1.5c0.4,1.1,0.7,2.1,1.1,3.1c0.1,0.3,0.1,0.6,0.1,0.9l0,0.2l0,0.1l0,0.1l0,0c0,0,0,0,0,0.1
		c0,0.1,0.1,0.3,0.1,0.3l0.1,0.8c0,0,0,0.2,0,0.2c0,0,0-0.1,0-0.1l0,0.1c0,0,0.1,0.1,0.1,0.1c0.1,0.2,0.1,0.4,0.1,0.6
		c0,0.6-0.1,1,0.1,1.5c0,0.2,0,0.2,0,0.3l0,0.2l0,0.4c0,0.3,0,0.5,0,0.8c0,1.1,0.1,2.2,0,3.3c0,0.3,0,0.6-0.1,0.8l0,0.2
		c0,0,0,0.1,0,0.1c0,0.1,0.1,0.3,0,0.5c-0.1,0.3-0.1,0.5-0.1,0.8c0,0.3,0,0.6-0.1,0.8l-0.5,3.2l0,0c0,0,0,0-0.1,0c0,0,0,0,0,0
		c0.4-4.4,0.3-8.6-0.2-12.9c0-0.1,0-0.2,0-0.2l0,0l0,0c0-0.1-0.1-0.2-0.1-0.2l0-0.3l-0.1-0.8c0-0.1,0,0,0-0.1c0,0-0.1-0.1-0.1-0.3
		l0-0.2l0-0.2c0-0.2-0.1-0.5-0.1-0.7c-0.3-1-0.7-2-1.1-3l-0.6-1.5c-0.1-0.2-0.2-0.4-0.3-0.6c-0.1-0.1-0.2-0.2-0.3-0.4
		c0-0.1-0.1-0.2-0.1-0.3l-0.1-0.2c-0.2-0.4-0.5-0.7-0.9-1.2l-0.5-0.6c-0.2-0.2-0.4-0.5-0.4-0.5c0,0-0.1-0.1-0.1-0.1c0,0-0.1,0-0.2,0
		c-0.1,0-0.2-0.1-0.3-0.2L12,21.5c0-0.1-0.3-0.3-0.5-0.4c-0.1-0.1-0.4-0.2-0.7-0.5c-0.2-0.2-0.3-0.3-0.5-0.5
		c-0.4-0.3-0.8-0.4-1.4-0.7c-0.1-0.1-0.3-0.1-0.4-0.2c-0.1,0-0.1-0.1-0.2-0.2c0,0-0.1-0.1-0.1-0.1c-0.1,0-0.2-0.1-0.2-0.1
		c-0.1,0-0.3-0.1-0.4-0.1c-0.3-0.1-0.5-0.2-0.8-0.3c-0.2-0.1-0.4-0.1-0.7-0.2c-0.5-0.1-1-0.3-1.5-0.3c-0.5,0-1.1-0.1-1.6-0.1
		c-0.5,0-1.1,0-1.5,0.2c-0.4,0.2-0.8,0.6-0.9,1c-0.1,0.4,0,0.9,0.3,1.3c0.2,0.2,0.4,0.3,0.6,0.4c0.2,0.1,0.5,0.3,0.7,0.4
		c0.2,0.1,0.4,0.3,0.7,0.3c0.1,0,0.2,0,0.4,0.1c0.1,0,0.3,0.1,0.4,0.2c0.4,0.3,1,0.3,1.5,0.4l1.6,0.3c0.5,0.1,1,0,1.6,0l1.6-0.1l0,0
		c0.4-0.1,0.9-0.2,1.3-0.4c0.2-0.1,0.4-0.1,0.6-0.2c0.2-0.1,0.4-0.2,0.4-0.3l0.4,0.4l0,0c-0.1,0.1-0.3,0.1-0.4,0
		c-0.1-0.1-0.1-0.3,0-0.4l0,0c0.3-0.3,0.7-0.5,1.1-0.7c0.2-0.1,0.4-0.2,0.6-0.3c0.1,0,0.3-0.1,0.3-0.1c0,0,0,0,0.1,0l0.1-0.1
		c0.2-0.2,0.4-0.2,0.6-0.3c0.2-0.1,0.3-0.2,0.5-0.3c0.1-0.1,0.3-0.2,0.4-0.3c0.1-0.1,0.1-0.1,0.2-0.2c0.1-0.1,0.2-0.2,0.3-0.3
		l0.5-0.3c0.1,0,0.1-0.1,0.1-0.1c0,0,0,0,0-0.1c0-0.1,0.1-0.1,0.1-0.2c0.3-0.4,0.6-0.6,0.9-0.9c0.5-0.6,0.9-1.2,1.3-1.9l0.6-1
		c0.2-0.3,0.3-0.7,0.5-1.1c0.2-0.4,0.3-0.7,0.5-1.1l0.4-1.1c0.3-0.7,0.4-1.5,0.5-2.2l0.2-1.2c0-0.3,0-0.8,0.1-1.2l0,0.2l0,0l0,0
		c0,0,0-0.1,0-0.1c0-0.6,0.1-1.1,0.1-1.6c0-0.3,0-0.5-0.1-0.8c0-0.3,0-0.6,0-0.9c0-0.1,0-0.3,0-0.4l-0.1-0.4c0-0.3-0.1-0.6-0.1-0.8
		c0-0.2,0-0.2-0.1-0.3c-0.1-0.1-0.1-0.3-0.2-0.4C21.3,0.6,21.3,0.3,21.4,0C21.3,0,21.3,0,21.4,0C21.4,0,21.4,0,21.4,0z"/>
</g>
</svg>
