<?xml version="1.0" encoding="utf-8"?>
<!-- Generator: Adobe Illustrator 21.0.0, SVG Export Plug-In . SVG Version: 6.00 Build 0)  -->
<svg version="1.1" id="Elements" xmlns="http://www.w3.org/2000/svg" xmlns:xlink="http://www.w3.org/1999/xlink" x="0px" y="0px"
	 viewBox="0 0 21 25" style="enable-background:new 0 0 21 25;" xml:space="preserve">
<style type="text/css">
	.st0{fill:#2E2E2E;}
</style>
<g>
	<path class="st0" d="M10.5,25c-3.4,0-6.8,0-10.1,0c-0.3,0-0.4,0-0.4-0.4c0.3-3.8,0.5-7.6,0.7-11.4c0.1-2,0.3-4,0.4-6
		C1.1,7,1.2,7,1.4,7c6.1,0,12.1,0,18.2,0c0.2,0,0.3,0,0.3,0.3c0.3,4.2,0.5,8.4,0.8,12.7c0.1,1.6,0.2,3.2,0.3,4.8
		c0,0.3-0.1,0.3-0.3,0.3C17.3,25,13.9,25,10.5,25z M10.5,24C10.5,24,10.5,24,10.5,24c3,0,6.1,0,9.1,0c0.2,0,0.3-0.1,0.3-0.3
		c-0.1-1.8-0.2-3.5-0.3-5.3c-0.2-3.3-0.4-6.7-0.7-10C18.9,8,18.8,8,18.6,8c-2.8,0-5.6,0-8.5,0C7.5,8,5,8,2.4,8C2.2,8,2.1,8,2.1,8.3
		c0,0.3,0,0.6-0.1,0.9c-0.1,2-0.3,4.1-0.4,6.1c-0.2,2.8-0.4,5.6-0.5,8.3c0,0.3,0,0.3,0.3,0.3C4.4,24,7.5,24,10.5,24z"/>
	<path class="st0" d="M6,5.6c0-0.9,0.1-1.9,0.4-2.8C7,1,8.3,0.1,10.1,0c1.1,0,2.1,0.1,3,0.8c1,0.7,1.4,1.8,1.6,2.9
		C15,4.5,15,5.4,15,6.3c0,0.2,0,0.2-0.2,0.2c-0.8,0-0.8,0-0.8-0.8c0-0.9-0.1-1.8-0.4-2.6c-0.5-1.4-1.3-2-2.8-2.1
		C10.4,1,10,1,9.5,1.1C8.3,1.3,7.6,2.2,7.3,3.3C7.1,4.3,7,5.2,7,6.1c0,0.3,0,0.4-0.3,0.3C6,6.5,6,6.5,6,5.8C6,5.8,6,5.7,6,5.6z"/>
</g>
</svg>
