<?xml version="1.0" encoding="utf-8"?>
<!-- Generator: Adobe Illustrator 21.0.0, SVG Export Plug-In . SVG Version: 6.00 Build 0)  -->
<svg version="1.1" id="PRINT" xmlns="http://www.w3.org/2000/svg" xmlns:xlink="http://www.w3.org/1999/xlink" x="0px" y="0px"
	 viewBox="0 0 479.8 479.8" style="enable-background:new 0 0 479.8 479.8;" xml:space="preserve">
<style type="text/css">
	.st0{fill:#2E2E2E;}
</style>
<g>
	<path class="st0" d="M0,240.1C-0.1,107.6,107.3,0,239.8,0c132.5,0,240,107.5,240,239.9c0,132.5-107.5,239.9-240.1,239.9
		C107.5,479.8,0.1,372.5,0,240.1z M18.8,239.8C18.7,362,117.5,460.9,239.8,461C362,461.2,460.9,362.4,461,240.1
		c0.1-122.2-98.8-221.2-221-221.3C117.9,18.7,18.9,117.6,18.8,239.8z"/>
	<path class="st0" d="M206,298.9c0-19.5-0.1-39,0.1-58.5c0-3.7-0.9-4.9-4.7-4.7c-5.3,0.3-10.7,0-16,0.1c-2.5,0.1-3.5-0.6-3.5-3.3
		c0.1-13.8,0.1-27.7,0-41.5c0-2.4,0.7-3.2,3.1-3.1c5.5,0.1,11-0.2,16.5,0.1c3.4,0.2,4.5-0.8,4.5-4.4c-0.1-10.3-0.7-20.6,1.9-30.8
		c6-23.1,23.8-37.5,47.8-37.8c12.7-0.2,25.3,0.1,38-0.1c3.2,0,4.3,0.7,4.2,4.1c-0.2,11.7-0.2,23.3,0,35c0,3.1-0.8,4-3.9,3.9
		c-7.5-0.2-15-0.1-22.5-0.1c-6.8,0-9.8,2.3-11.1,9c-1.3,6.3-0.4,12.6-0.5,18.9c-0.1,3.1,2.4,2.2,4,2.2c9.8,0.1,19.7,0.1,29.5,0
		c2.8,0,3.8,0.8,3.5,3.7c-1.4,13.9-2.8,27.8-4,41.8c-0.2,2.9-2,2.5-3.8,2.5c-7.8,0-15.7,0.2-23.5-0.1c-4.4-0.2-5.9,0.8-5.8,5.6
		c0.2,38.3,0,76.6,0.2,114.9c0,4.7-1.3,5.7-5.8,5.7c-14.3-0.3-28.7-0.3-43,0c-4.6,0.1-5.4-1.4-5.4-5.6
		C206.1,337.2,206,318.1,206,298.9z"/>
</g>
</svg>
