<?xml version="1.0" encoding="utf-8"?>
<!-- Generator: Adobe Illustrator 21.0.0, SVG Export Plug-In . SVG Version: 6.00 Build 0)  -->
<svg version="1.1" id="PRINT" xmlns="http://www.w3.org/2000/svg" xmlns:xlink="http://www.w3.org/1999/xlink" x="0px" y="0px"
	 viewBox="0 0 479.8 479.8" style="enable-background:new 0 0 479.8 479.8;" xml:space="preserve">
<style type="text/css">
	.st0{fill:#2E2E2E;}
</style>
<g>
	<path class="st0" d="M241.8,361.7c-18.3,0-36.7,0.5-55-0.1c-34.1-1.2-59.8-23.9-65.1-56.4c-0.9-5.2-1.2-10.4-1.2-15.6
		c0-32.8,0-65.6,0-98.4c0-14.1,2.5-27.5,9.7-39.7c10.1-17.3,25.5-27.1,44.9-30.9c5.6-1.1,11.3-1.6,17-1.6c33.6,0,67.2-0.1,100.9,0
		c16.2,0.1,31.3,4,44.3,14.2c14.5,11.3,22.7,26.3,25.4,44.4c0.8,5.6,1,11.3,1,17c0,31.9,0,63.8,0,95.7c0,11-1.6,21.8-6.1,31.9
		c-9.7,21.9-27.1,34-50.3,38.4c-5.5,1-11.1,1.2-16.7,1.2c-16.2,0-32.4,0-48.5,0C241.8,361.8,241.8,361.8,241.8,361.7z M143,240.3
		c0,15.9,0,31.8,0,47.7c0,4.5,0.2,9,0.9,13.5c3,17.2,12.1,29.2,29,34.9c6.7,2.3,13.6,2.9,20.5,2.9c32,0,64,0,96,0
		c4.3,0,8.7-0.1,13-0.8c16.6-2.8,28.8-11.4,35.5-27.1c2.9-6.9,3.9-14.2,3.9-21.7c0-32.4,0-64.9,0-97.3c0-4.3-0.2-8.5-1-12.7
		c-2.6-13.3-8.8-24.4-20.9-31.4c-8-4.7-16.8-6.6-25.9-6.6c-33.5-0.1-67.1,0-100.6,0c-4.5,0-9,0.3-13.5,1.1
		c-16.3,3-27.8,11.8-33.7,27.5c-2.5,6.8-3.2,13.9-3.3,21C142.9,207.6,143,223.9,143,240.3z"/>
	<path class="st0" d="M304.5,240.1c-0.1,34.9-28.3,62.6-63.4,62.5c-34.6-0.1-62.1-28.3-62-63.5c0.2-34,28.7-62,63-61.8
		C276.6,177.6,304.6,205.8,304.5,240.1z M241.8,199.9c-22.2,0.1-40,18-40,40.3c0,22,18,39.9,40.1,39.9c22.1,0,40.2-18.2,40.1-40.2
		C281.8,217.7,263.7,199.8,241.8,199.9z"/>
	<path class="st0" d="M306.9,161.6c8,0,14.3,6.3,14.2,14.2c0,7.9-6.4,14.2-14.3,14.2c-7.8-0.1-14.1-6.3-14.2-14.1
		C292.6,168.1,299,161.6,306.9,161.6z"/>
</g>
<g>
	<path class="st0" d="M240.2,0c132.5,0.2,239.9,107.9,239.7,240.3c-0.3,132.5-107.9,239.8-240.4,239.5
		C106.9,479.6-0.3,371.8,0,239.3C0.3,107,107.9-0.2,240.2,0z M240.1,18.8C118,18.7,18.9,117.6,18.8,239.7
		C18.6,361.9,117.4,460.9,239.7,461C362,461.2,460.9,362.4,461,240.2C461.2,118,362.3,18.9,240.1,18.8z"/>
</g>
</svg>
