<?xml version="1.0" encoding="UTF-8"?>
<svg width="2318px" height="869px" viewBox="0 0 2318 869" version="1.1" xmlns="http://www.w3.org/2000/svg" xmlns:xlink="http://www.w3.org/1999/xlink">
    <!-- Generator: Sketch 52.5 (67469) - http://www.bohemiancoding.com/sketch -->
    <title>full_image</title>
    <desc>Created with Sketch.</desc>
    <g id="Page-1" stroke="none" stroke-width="1" fill="none" fill-rule="evenodd">
        <g id="New-sticker-logo" transform="translate(-91.000000, -825.000000)">
            <g id="full_image" transform="translate(91.000000, 790.000000)">
                <g id="header">
                    <g id="Group" transform="translate(0.000000, 35.000000)" fill-rule="nonzero">
                        <path d="M82.6573643,146.008065 L118.595349,131.653226 L183.283721,131.653226 L226.409302,131.653226 L251.565891,106.532258 L406.099225,99.3548387 C516.309044,104.139785 575.007752,106.532258 582.195349,106.532258 C589.382946,106.532258 652.873385,106.532258 772.666667,106.532258 L916.418605,106.532258 L1067.35814,106.532258 L1175.17209,99.3548387 L1484.23876,85 L1617.2093,85 L1814.86822,85 L2044.87132,99.3548387 C2083.58301,104.929313 2109.93753,110.312377 2123.93488,115.504032 C2137.93224,120.695687 2153.50536,130.863698 2170.65426,146.008065 C2157.07769,138.830645 2146.2963,135.241935 2138.31008,135.241935 C2130.32386,135.241935 2118.34453,138.830645 2102.37209,146.008065 C2132.63667,149.231842 2161.38705,154.016788 2188.62326,160.362903 C2207.51149,164.763917 2229.92116,175.680715 2264.09302,185.483871 C2274.16157,188.372317 2292.13057,191.961026 2318,196.25 C2313.42741,212.670288 2302.64601,225.82889 2285.65581,235.725806 C2273.88017,242.585205 2254.68175,262.769162 2228.15504,271.612903 C2220.3239,274.223727 2207.14664,274.223727 2188.62326,271.612903 L2138.31008,278.790323 C2090.22243,275.820993 2054.28445,275.820993 2030.49612,278.790323 C2006.7078,281.759653 1994.72847,287.740835 1994.55814,296.733871 C2010.08653,294.223099 2020.86793,294.223099 2026.90233,296.733871 C2032.93672,299.244643 2036.53052,305.225826 2037.68372,314.677419 C2093.6266,317.430569 2135.55425,321.019279 2163.46667,325.443548 C2191.37909,329.867818 2224.92121,338.241474 2264.09302,350.564516 C2228.96862,348.939452 2203.81203,348.939452 2188.62326,350.564516 C2173.43448,352.18958 2165.04895,355.77829 2163.46667,361.330645 C2144.93682,352.314733 2131.75956,348.726023 2123.93488,350.564516 C2116.11021,352.403009 2108.92261,360.776665 2102.37209,375.685484 L1958.62016,393.629032 L1840.02481,400.806452 L1850.8062,411.572581 L1750.17984,411.572581 L1850.8062,425.927419 L2037.68372,433.104839 L2012.52713,440.282258 L2080.8093,447.459677 L1965.80775,468.991935 L1908.30698,447.459677 L1829.24341,440.282258 L1757.36744,447.459677 L1617.2093,440.282258 L1520.17674,447.459677 L1649.55349,454.637097 L1768.14884,461.814516 L1689.08527,476.169355 L1663.92868,476.169355 L1750.17984,483.346774 L1714.24186,494.112903 L1663.92868,504.879032 L1595.64651,504.879032 L1415.95659,504.879032 L1635.17829,519.233871 L1577.67752,530 L1448.30078,530 L1311.73643,504.879032 L1175.17209,519.233871 L1092.51473,519.233871 L934.387597,530 L952.356589,519.233871 L1088.92093,504.879032 L1128.45271,476.169355 L826.573643,476.169355 C790.635659,495.30914 772.666667,504.879032 772.666667,504.879032 C772.666667,504.879032 749.905943,504.879032 704.384496,504.879032 L582.195349,504.879032 L524.694574,494.112903 L488.756589,483.346774 C443.235142,497.701613 418.078553,504.879032 413.286822,504.879032 C408.49509,504.879032 372.557106,504.879032 305.472868,504.879032 L197.658915,483.346774 L276.722481,461.814516 L262.347287,440.282258 L143.751938,411.572581 L158.127132,375.685484 L244.378295,361.330645 L276.722481,350.564516 L161.72093,325.443548 C168.681432,315.646883 171.077298,309.6657 168.908527,307.5 C166.739756,305.3343 158.354226,305.3343 143.751938,307.5 L104.220155,307.5 L118.595349,264.435484 C86.3333963,266.04042 63.5726728,266.04042 50.3131783,264.435484 C37.0536838,262.830548 20.2826244,258.045602 0,250.080645 C26.0390644,234.543257 47.601855,223.777128 64.6883721,217.782258 C81.7748891,211.787388 104.535613,207.002442 132.970543,203.427419 L143.751938,178.306452 C111.769284,175.753273 91.4044265,172.164563 82.6573643,167.540323 C73.9103022,162.916082 73.9103022,155.738663 82.6573643,146.008065 Z" id="background" fill-opacity="0.5" fill="#E2D2D4"></path>
                        <g id="flower" transform="translate(1028.000000, 0.000000)">
                            <path d="M102.260665,344 C108.933851,320.062532 113.099235,300.182835 114.756815,284.360909 C116.414395,268.538983 116.414395,248.659286 114.756815,224.721818 C104.330267,181.062513 98.7764229,148.403011 98.0952817,126.743312 C97.4141406,105.083613 100.384957,81.1691755 107.007732,55" id="Path-150" stroke="#000000" stroke-width="4"></path>
                            <path d="M114.993744,38.125 C116.66371,35.9587235 119.235844,33.6567465 122.710146,31.219069 C124.594522,29.8969324 128.018217,27.8239094 132.981233,25 C133.18782,38.3431268 131.688862,47.0931268 128.48436,51.25 C125.279859,55.4068732 117.785072,58.3235399 106,60 C108.967241,49.345346 111.965155,42.0536793 114.993744,38.125 Z" id="Path-151" fill="#000000"></path>
                            <path d="M107,56 C103.570571,39.8609132 99.170571,28.3737338 93.8,21.5384615 C88.429429,14.7031893 78.1627623,7.52370214 63,0 C66.2791964,18.8196765 70.6791964,31.7427534 76.2,38.7692308 C81.7208036,45.7957081 91.9874703,51.5392979 107,56 Z" id="Path-152" fill="#000000"></path>
                            <path d="M98,149 C104.502731,121.270822 111.407492,102.493044 118.714286,92.6666667 C126.021079,82.8402896 138.44965,75.6180673 156,71 C151.429665,94.066948 145.905855,109.955837 139.428571,118.666667 C132.951288,127.377496 119.141764,137.488608 98,149 Z" id="Path-153" fill="#000000"></path>
                            <path d="M76.5,103.848688 C66.7850015,94.4932383 46.9516682,85.877009 17,78 C40.2227273,116.44689 57.2227273,140.85954 68,151.237949 C78.7772727,161.616359 90.110606,164.488435 102,159.854179 C94.7149985,131.872634 86.2149985,113.204138 76.5,103.848688 Z" id="Path-154" fill="#000000"></path>
                            <path d="M115.044121,216.993278 C114.515602,202.787302 118.735373,191.788423 127.703434,183.996639 C135.017644,177.641783 150.668439,173.995173 174.120916,163.37374 C177.656218,161.77263 183.28258,157.64805 191,151 C190.408643,166.999285 189.002053,177.998165 186.780229,183.996639 C180.542024,200.838532 168.470026,210.904101 161.461603,216.993278 C150.708958,226.335574 135.236464,226.335574 115.044121,216.993278 Z" id="Path-155" fill="#000000"></path>
                            <path d="M116,241.730267 C93.8697768,210.266362 75.2524929,190.013665 60.1481481,180.972176 C45.0438034,171.930686 24.9944207,169.037444 0,172.292448 C9.23904594,195.932513 20.6958361,211.845347 34.3703704,220.030949 C42.3802462,224.825676 72.9242714,246.268879 90.2222222,250.409995 C98.3777364,252.362418 106.970329,249.469176 116,241.730267 Z" id="Path-156" fill="#000000"></path>
                        </g>
                    </g>
                    <text id="Eko" font-family="Caveat-Regular, Caveat" font-size="450" font-weight="normal" fill="#000000">
                        <tspan x="368" y="432">Eko</tspan>
                    </text>
                    <text id="Mom" font-family="Caveat-Regular, Caveat" font-size="450" font-weight="normal" fill="#000000">
                        <tspan x="1259" y="432">Mom</tspan>
                    </text>
                </g>
                <g id="subpart" transform="translate(438.000000, 606.000000)" fill="#000000" font-family="Caveat-Regular, Caveat" font-size="250" font-weight="normal">
                    <text id="Family-Workshop">
                        <tspan x="9.75" y="240">Family Workshop</tspan>
                    </text>
                </g>
            </g>
        </g>
    </g>
</svg>