<?xml version="1.0" encoding="UTF-8"?>
<svg width="2318px" height="921px" viewBox="0 0 2318 921" version="1.1" xmlns="http://www.w3.org/2000/svg" xmlns:xlink="http://www.w3.org/1999/xlink">
    <!-- Generator: Sketch 52.5 (67469) - http://www.bohemiancoding.com/sketch -->
    <title>Artboard</title>
    <desc>Created with Sketch.</desc>
    <defs>
        <path d="M471.95,442.8 C465.349967,442.499999 459.200029,440.850015 453.5,437.85 C447.799972,434.849985 441.350036,430.500028 434.15,424.8 L425.15,418.5 C419.749973,413.099973 415.625014,407.475029 412.775,401.625 C409.924986,395.774971 407.600009,388.200046 405.8,378.9 C405.199997,375.299982 404.9,372.150014 404.9,369.45 C404.9,360.749956 406.399985,350.475059 409.4,338.625 C412.400015,326.774941 415.699982,317.100037 419.3,309.6 C425.900033,293.699921 440.449888,268.200176 462.95,233.1 L465.425,230.625 C465.875002,230.174998 466.025001,229.875001 465.875,229.725 L465.65,229.5 C465.65,227.39999 469.999957,218.100083 478.7,201.6 C483.800026,196.199973 486.35,191.55002 486.35,187.65 C486.35,185.549989 485.900005,183.900006 485,182.7 C483.799994,181.199993 486.574966,177.525029 493.325,171.675 C500.075034,165.824971 508.549949,160.050028 518.75,154.35 C526.850041,148.049968 534.799961,144.9 542.6,144.9 C545.000012,144.9 547.024992,145.274996 548.675,146.025 C550.325008,146.775004 551.299999,147.899992 551.6,149.4 C551.6,151.200009 557.59994,150.600015 569.6,147.6 C575.000027,146.399994 578.899988,145.650002 581.3,145.35 C582.500006,143.849992 585.574975,142.575005 590.525,141.525 C595.475025,140.474995 602.449955,139.350006 611.45,138.15 C616.250024,138.450001 621.199975,138.450001 626.3,138.15 C631.400026,137.849998 634.699993,137.550002 636.2,137.25 C638.600012,136.349995 641.224986,136.724992 644.075,138.375 C646.925014,140.025008 649.39999,143.249976 651.5,148.05 C652.400005,150.150011 652.85,152.099991 652.85,153.9 C652.85,157.200016 650.82502,159.82499 646.775,161.775 C642.72498,163.72501 635.75005,165.299994 625.85,166.5 C615.949951,167.700006 609.800012,168.449998 607.4,168.75 C590.899918,170.550009 573.500092,173.39998 555.2,177.3 C543.499942,179.700012 535.025026,182.699982 529.775,186.3 C524.524974,189.900018 518.600033,196.799949 512,207 C509.89999,208.500007 507.200017,212.324969 503.9,218.475 C500.599984,224.625031 497.300017,230.999967 494,237.6 C493.099996,238.800006 492.050006,240.299991 490.85,242.1 C489.649994,243.900009 488.150009,245.849989 486.35,247.95 C477.649957,259.650059 471.650017,268.124974 468.35,273.375 C465.049984,278.625026 463.849996,281.849994 464.75,283.05 C465.650005,283.350001 467.374987,283.799997 469.925,284.4 C472.475013,285.000003 474.649991,285.449998 476.45,285.75 C479.150014,284.249992 482.899976,283.200003 487.7,282.6 C492.500024,281.999997 495.94999,281.400003 498.05,280.8 C545.750239,268.499938 572.749969,261.900005 579.05,261 C581.750014,259.199991 584.299988,258.3 586.7,258.3 C592.100027,258.3 596.899979,261.899964 601.1,269.1 C602.000005,270.900009 602.45,272.549992 602.45,274.05 C602.45,276.750014 600.350021,279.299988 596.15,281.7 C591.949979,284.100012 584.000059,287.024983 572.3,290.475 C560.599942,293.925017 546.500083,297.899977 530,302.4 L515.6,306.45 C496.099903,312.150029 480.950054,315 470.15,315 C460.849954,315 456.349999,312.450026 456.65,307.35 C453.649985,305.849993 450.275019,309.14996 446.525,317.25 C442.774981,325.35004 439.550014,335.324941 436.85,347.175 C434.149987,359.025059 432.8,368.999959 432.8,377.1 C432.8,381.300021 433.249996,384.599988 434.15,387 C436.850014,394.500037 440.22498,400.19998 444.275,404.1 C448.32502,408.00002 455.149952,411.299986 464.75,414 C466.850011,414.300002 469.474984,414.599998 472.625,414.9 C475.775016,415.200001 479.449979,415.35 483.65,415.35 C489.65003,415.35 495.64997,414.150012 501.65,411.75 C516.950077,409.049986 530.074945,406.050016 541.025,402.75 C551.975055,399.449984 558.649988,397.050007 561.05,395.55 C562.850009,394.649995 564.349994,394.050002 565.55,393.75 C566.750006,393.449998 567.949994,393.3 569.15,393.3 L568.7,394.2 L568.7,394.425 C568.7,394.575001 568.849999,394.65 569.15,394.65 C570.050005,394.65 572.749978,392.100026 577.25,387 C582.350026,382.799979 589.324956,378.75002 598.175,374.85 C607.025044,370.94998 611.599999,370.049989 611.9,372.15 C612.500003,373.950009 612.8,375.449994 612.8,376.65 C612.8,382.350029 609.275035,389.17496 602.225,397.125 C595.174965,405.07504 585.65006,412.499966 573.65,419.4 C558.949927,427.200039 542.525091,432.974981 524.375,436.725 C506.224909,440.475019 488.750084,442.499999 471.95,442.8 Z M656.45,429.75 C652.849982,428.549994 649.10002,425.025029 645.2,419.175 C641.299981,413.324971 639.35,408.000024 639.35,403.2 L645.65,384.3 L654.2,357.3 C656.900014,353.399981 659.074992,348.675028 660.725,343.125 C662.375008,337.574972 663.349999,334.350005 663.65,333.45 C666.650015,327.749971 672.649955,313.950109 681.65,292.05 L690.2,271.35 C698.600042,253.34991 705.499973,237.150072 710.9,222.75 L718.1,206.1 L726.65,186.3 C737.150053,160.799872 742.999994,145.950021 744.2,141.75 C744.2,139.349988 744.724995,137.550006 745.775,136.35 C746.825005,135.149994 747.949994,134.55 749.15,134.55 C750.650008,133.049993 753.049984,132.3 756.35,132.3 C757.850008,132.3 760.249984,134.624977 763.55,139.275 C766.850017,143.925023 768.5,147.899984 768.5,151.2 C768.5,156.300026 766.100024,165.524933 761.3,178.875 C756.499976,192.225067 750.050041,206.999919 741.95,223.2 C712.549853,286.500316 699.049988,319.349988 701.45,321.75 L709.1,317.925 C713.00002,315.97499 717.049979,313.500015 721.25,310.5 C723.950014,308.999993 726.499988,307.425008 728.9,305.775 C731.300012,304.124992 733.399991,302.700006 735.2,301.5 C744.500047,295.199968 750.19999,291.750003 752.3,291.15 C754.100009,289.949994 757.549974,287.850015 762.65,284.85 C768.050027,281.249982 770.899999,279.300002 771.2,279 C774.800018,277.199991 777.799988,276.3 780.2,276.3 C782.000009,276.3 783.649993,276.899994 785.15,278.1 C786.650008,279.300006 788.44999,281.099988 790.55,283.5 C792.350009,285.60001 793.25,287.699989 793.25,289.8 C793.25,291.90001 792.050012,294.074989 789.65,296.325 C787.249988,298.575011 783.200029,301.499982 777.5,305.1 C773.599981,307.800013 769.550021,310.349988 765.35,312.75 C761.149979,315.150012 757.10002,317.549988 753.2,319.95 C731.599892,333.150066 720.500003,340.199995 719.9,341.1 C720.500003,342.300006 721.924989,344.999979 724.175,349.2 C726.425011,353.400021 728.599989,356.999985 730.7,360 L737.45,371.7 C741.050018,376.800026 742.85,380.099992 742.85,381.6 C745.550013,389.100037 749.224977,394.949979 753.875,399.15 C758.525023,403.350021 763.549973,405.45 768.95,405.45 C771.650014,405.45 774.799982,404.700007 778.4,403.2 C782.900022,401.399991 786.499986,400.5 789.2,400.5 C793.400021,400.5 796.249992,402.899976 797.75,407.7 C798.650005,409.500009 799.1,410.849995 799.1,411.75 C799.1,412.950006 797.000021,415.649979 792.8,419.85 C784.999961,427.650039 777.050041,431.55 768.95,431.55 C766.249986,431.55 763.100018,430.800007 759.5,429.3 C754.999978,429.600002 749.375034,426.600032 742.625,420.3 C735.874966,413.999969 726.50006,403.050078 714.5,387.45 C714.5,386.249994 712.850017,382.350033 709.55,375.75 C708.349994,373.049986 707.000008,370.575011 705.5,368.325 L702.35,363.6 C702.35,362.399994 701.675007,360.82501 700.325,358.875 C698.974993,356.92499 698.000003,355.350006 697.4,354.15 C694.099984,353.249995 691.47501,353.549993 689.525,355.05 C687.57499,356.550007 685.775008,358.649987 684.125,361.35 C682.474992,364.050013 681.200005,365.999994 680.3,367.2 C677.299985,375.000039 674.300015,384.524944 671.3,395.775 C668.299985,407.025056 667.249996,414.299983 668.15,417.6 C668.15,422.400024 667.400008,425.624992 665.9,427.275 C664.399993,428.925008 661.250024,429.75 656.45,429.75 Z M850.85,425.25 C847.249982,425.25 844.400011,424.650006 842.3,423.45 C840.19999,422.249994 837.20002,420.000017 833.3,416.7 C823.39995,406.199948 818.45,396.600043 818.45,387.9 C818.45,385.799989 818.599999,384.300005 818.9,383.4 C819.800005,381.29999 820.175001,379.200011 820.025,377.1 C819.874999,374.999989 819.8,373.650003 819.8,373.05 C818.599994,371.849994 818,371.025002 818,370.575 C818,370.124998 818.299997,369.675002 818.9,369.225 C819.500003,368.774998 819.949998,368.250003 820.25,367.65 C822.050009,367.65 822.650003,366.000017 822.05,362.7 C821.449997,360.299988 822.649985,354.975041 825.65,346.725 C828.650015,338.474959 832.399977,330.900035 836.9,324 C840.200017,318.599973 845.074968,311.85004 851.525,303.75 C857.975032,295.64996 863.749975,289.500021 868.85,285.3 C876.050036,278.999969 882.499972,274.350015 888.2,271.35 C893.900028,268.349985 900.199965,266.100008 907.1,264.6 C913.10003,263.099992 917.149989,262.35 919.25,262.35 C921.350011,262.35 923.224992,262.874995 924.875,263.925 C926.525008,264.975005 928.699987,266.849986 931.4,269.55 C939.500041,273.150018 945.124984,277.724972 948.275,283.275 C951.425016,288.825028 953,297.449942 953,309.15 C953,328.650097 945.05008,349.799886 929.15,372.6 C922.249965,382.500049 915.80003,390.074974 909.8,395.325 C903.79997,400.575026 895.85005,406.19997 885.95,412.2 C879.649969,416.700022 873.875026,419.92499 868.625,421.875 C863.374974,423.82501 857.450033,424.949998 850.85,425.25 Z M894.05,377.55 C901.250036,369.449959 907.024978,361.800036 911.375,354.6 C915.725022,347.399964 919.849981,338.250056 923.75,327.15 C925.250008,322.049974 926,315.900036 926,308.7 C926,299.699955 924.800012,294.600006 922.4,293.4 C919.399985,291.899992 916.400015,291.15 913.4,291.15 C906.799967,291.15 899.900036,294.14997 892.7,300.15 C883.999957,307.650037 876.200035,316.874945 869.3,327.825 C862.399966,338.775055 855.350036,352.349919 848.15,368.55 C845.149985,374.850032 843.65,380.99997 843.65,387 C843.65,391.500023 844.774989,395.099986 847.025,397.8 C849.275011,400.500014 852.349981,401.85 856.25,401.85 C866.15005,401.85 878.749924,393.750081 894.05,377.55 Z" id="path-1"></path>
        <path d="M1556.45,453.6 C1556.45,454.800006 1555.40001,455.4 1553.3,455.4 C1551.79999,455.4 1550.00001,454.800006 1547.9,453.6 C1545.79999,452.399994 1544.15001,450.750011 1542.95,448.65 C1540.54999,443.549975 1539.35,437.250038 1539.35,429.75 L1539.8,411.3 C1549.10005,356.699727 1560.04994,301.800276 1572.65,246.6 C1576.85002,231.899926 1580.37499,217.950066 1583.225,204.75 C1586.07501,191.549934 1587.8,183.150018 1588.4,179.55 C1588.4,178.649995 1587.57501,179.024992 1585.925,180.675 C1584.27499,182.325008 1582.70001,184.274989 1581.2,186.525 C1579.69999,188.775011 1579.1,190.349995 1579.4,191.25 L1568.15,207.9 C1566.34999,209.700009 1562.15003,216.59994 1555.55,228.6 C1551.04998,238.200048 1547.00002,245.699973 1543.4,251.1 L1530.8,274.95 C1521.49995,292.050086 1515.80001,302.399982 1513.7,306 C1510.69998,310.500023 1506.35003,318.299944 1500.65,329.4 C1497.64999,336.600036 1492.25004,345.149951 1484.45,355.05 C1482.04999,358.350017 1479.72501,361.949981 1477.475,365.85 C1475.22499,369.75002 1473.8,372.299994 1473.2,373.5 C1473.2,375.000007 1470.12503,380.099957 1463.975,388.8 C1457.82497,397.500044 1452.20003,404.699972 1447.1,410.4 C1440.19997,417.600036 1434.50002,422.774984 1430,425.925 C1425.49998,429.075016 1421.30002,430.65 1417.4,430.65 C1412.29997,430.65 1406.75003,427.800028 1400.75,422.1 C1396.84998,417.899979 1394.07501,412.950029 1392.425,407.25 C1390.77499,401.549971 1389.95,394.500042 1389.95,386.1 C1389.95,378.599963 1390.99999,366.000089 1393.1,348.3 C1393.4,346.799993 1396.24997,330.750153 1401.65,300.15 C1407.35003,269.249845 1410.79999,252.300015 1412,249.3 C1412.3,247.499991 1412.45,245.400012 1412.45,243 C1412.45,240.299986 1412,238.95 1411.1,238.95 C1410.2,238.95 1408.55001,240.89998 1406.15,244.8 C1405.25,246.000006 1399.92505,254.399922 1390.175,270 C1380.42495,285.600078 1370.00006,305.549878 1358.9,329.85 C1341.49991,361.95016 1328.60004,386.02492 1320.2,402.075 C1311.79996,418.12508 1305.65002,429.599965 1301.75,436.5 C1296.64997,446.40005 1293.65,451.799996 1292.75,452.7 C1288.24998,452.7 1282.55003,448.950038 1275.65,441.45 C1274.75,439.649991 1274.3,438.000007 1274.3,436.5 C1274.3,434.39999 1275.27499,430.950024 1277.225,426.15 C1279.17501,421.349976 1281.94998,415.050039 1285.55,407.25 C1294.85005,388.949908 1300.99998,378.600012 1304,376.2 C1307.60002,371.399976 1309.7,366.150028 1310.3,360.45 C1314.20002,355.049973 1319.74996,345.300071 1326.95,331.2 C1331.45002,323.999964 1336.77497,315.000054 1342.925,304.2 C1349.07503,293.399946 1354.54998,283.05005 1359.35,273.15 L1371.95,251.1 C1383.65006,230.699898 1393.02496,214.950056 1400.075,203.85 C1407.12504,192.749944 1412.44998,185.400018 1416.05,181.8 C1420.85002,176.099972 1423.25,171.600017 1423.25,168.3 C1423.25,161.999969 1424.52499,156.225026 1427.075,150.975 C1429.62501,145.724974 1432.24999,143.399997 1434.95,144 C1438.55002,144 1441.47499,144.374996 1443.725,145.125 C1445.97501,145.875004 1448.29999,147.749985 1450.7,150.75 C1451.3,151.650005 1452.27499,153.07499 1453.625,155.025 C1454.97501,156.97501 1456.025,159.074989 1456.775,161.325 C1457.525,163.575011 1457.9,166.349984 1457.9,169.65 C1457.9,173.250018 1457.45,177.749973 1456.55,183.15 C1456.25,187.050019 1455.05001,195.899931 1452.95,209.7 C1451.74999,216.300033 1451.15,220.349993 1451.15,221.85 C1443.34996,245.550118 1436.37503,275.174822 1430.225,310.725 C1424.07497,346.275178 1421,371.249928 1421,385.65 C1421,388.950017 1421.3,391.199994 1421.9,392.4 C1424.00001,393.900008 1425.87499,394.050006 1427.525,392.85 C1429.17501,391.649994 1431.64998,387.750033 1434.95,381.15 C1438.85002,373.949964 1445.44995,364.650057 1454.75,353.25 C1455.35,352.349995 1461.19994,342.450094 1472.3,323.55 C1499.90014,278.249774 1526.74987,232.800228 1552.85,187.2 L1564.55,168.75 C1569.05002,161.549964 1573.39998,154.875031 1577.6,148.725 C1581.80002,142.574969 1585.09999,138.600009 1587.5,136.8 C1590.50002,134.399988 1593.34999,133.2 1596.05,133.2 C1601.75003,133.2 1606.84998,136.649966 1611.35,143.55 C1615.85002,150.450034 1618.1,159.149947 1618.1,169.65 C1618.1,177.75004 1616.45002,190.124917 1613.15,206.775 C1609.84998,223.425083 1605.50003,240.149916 1600.1,256.95 C1598.29999,265.350042 1595.75002,275.849937 1592.45,288.45 C1589.14998,301.050063 1585.70002,312.449949 1582.1,322.65 C1581.5,327.750025 1580.30001,334.199961 1578.5,342 C1578.2,343.500008 1577.37501,348.074962 1576.025,355.725 C1574.67499,363.375038 1574.3,368.549986 1574.9,371.25 C1570.39998,379.35004 1568.15,395.549878 1568.15,419.85 L1566.8,430.2 C1566.2,438.600042 1565.6,444.299985 1565,447.3 C1564.4,450.300015 1563.50001,451.650002 1562.3,451.35 C1561.7,451.049999 1560.80001,450.9 1559.6,450.9 C1557.49999,450.9 1556.45,451.799991 1556.45,453.6 Z M1659.05,425.25 C1655.44998,425.25 1652.60001,424.650006 1650.5,423.45 C1648.39999,422.249994 1645.40002,420.000017 1641.5,416.7 C1631.59995,406.199948 1626.65,396.600043 1626.65,387.9 C1626.65,385.799989 1626.8,384.300005 1627.1,383.4 C1628,381.29999 1628.375,379.200011 1628.225,377.1 C1628.075,374.999989 1628,373.650003 1628,373.05 C1626.79999,371.849994 1626.2,371.025002 1626.2,370.575 C1626.2,370.124998 1626.5,369.675002 1627.1,369.225 C1627.7,368.774998 1628.15,368.250003 1628.45,367.65 C1630.25001,367.65 1630.85,366.000017 1630.25,362.7 C1629.65,360.299988 1630.84999,354.975041 1633.85,346.725 C1636.85001,338.474959 1640.59998,330.900035 1645.1,324 C1648.40002,318.599973 1653.27497,311.85004 1659.725,303.75 C1666.17503,295.64996 1671.94997,289.500021 1677.05,285.3 C1684.25004,278.999969 1690.69997,274.350015 1696.4,271.35 C1702.10003,268.349985 1708.39997,266.100008 1715.3,264.6 C1721.30003,263.099992 1725.34999,262.35 1727.45,262.35 C1729.55001,262.35 1731.42499,262.874995 1733.075,263.925 C1734.72501,264.975005 1736.89999,266.849986 1739.6,269.55 C1747.70004,273.150018 1753.32498,277.724972 1756.475,283.275 C1759.62502,288.825028 1761.2,297.449942 1761.2,309.15 C1761.2,328.650097 1753.25008,349.799886 1737.35,372.6 C1730.44997,382.500049 1724.00003,390.074974 1718,395.325 C1711.99997,400.575026 1704.05005,406.19997 1694.15,412.2 C1687.84997,416.700022 1682.07503,419.92499 1676.825,421.875 C1671.57497,423.82501 1665.65003,424.949998 1659.05,425.25 Z M1702.25,377.55 C1709.45004,369.449959 1715.22498,361.800036 1719.575,354.6 C1723.92502,347.399964 1728.04998,338.250056 1731.95,327.15 C1733.45001,322.049974 1734.2,315.900036 1734.2,308.7 C1734.2,299.699955 1733.00001,294.600006 1730.6,293.4 C1727.59999,291.899992 1724.60001,291.15 1721.6,291.15 C1714.99997,291.15 1708.10004,294.14997 1700.9,300.15 C1692.19996,307.650037 1684.40003,316.874945 1677.5,327.825 C1670.59997,338.775055 1663.55004,352.349919 1656.35,368.55 C1653.34999,374.850032 1651.85,380.99997 1651.85,387 C1651.85,391.500023 1652.97499,395.099986 1655.225,397.8 C1657.47501,400.500014 1660.54998,401.85 1664.45,401.85 C1674.35005,401.85 1686.94992,393.750081 1702.25,377.55 Z M1989.8,413.1 C1985.59998,411.599992 1981.62502,407.925029 1977.875,402.075 C1974.12498,396.224971 1972.25,386.700066 1972.25,373.5 L1972.7,352.8 C1972.7,349.199982 1972.475,346.650008 1972.025,345.15 C1971.575,343.649992 1970.75001,342.9 1969.55,342.9 C1965.64998,342.9 1957.32506,347.999949 1944.575,358.2 C1931.82494,368.400051 1919.00006,380.54993 1906.1,394.65 C1904.59999,396.150008 1902.57501,398.324986 1900.025,401.175 C1897.47499,404.025014 1895.15001,406.124993 1893.05,407.475 C1890.94999,408.825007 1889.00001,409.5 1887.2,409.5 C1884.49999,409.5 1881.95001,408.45001 1879.55,406.35 L1874.6,402.3 C1872.49999,400.499991 1871.45,398.400012 1871.45,396 L1872.35,391.95 L1882.7,362.25 C1889.30003,346.949924 1893.19999,337.27502 1894.4,333.225 C1895.60001,329.17498 1895.45001,327.299999 1893.95,327.6 C1891.24999,327.900002 1887.50002,329.324987 1882.7,331.875 C1877.89998,334.425013 1874.90001,336.899988 1873.7,339.3 C1873.1,339.3 1871.15002,340.874984 1867.85,344.025 C1864.54998,347.175016 1861.70001,349.499992 1859.3,351 C1856.59999,354.900019 1850.00005,361.949949 1839.5,372.15 L1828.7,382.5 C1824.19998,386.100018 1817.90004,393.449945 1809.8,404.55 C1805.59998,409.950027 1803.2,412.65 1802.6,412.65 C1793.29995,412.65 1787.45001,408.150045 1785.05,399.15 C1783.84999,397.04999 1783.25,394.200018 1783.25,390.6 C1783.25,385.799976 1785.04998,375.900075 1788.65,360.9 C1791.35001,350.699949 1792.85,344.400012 1793.15,342 L1795.4,333 C1796,329.099981 1797.34999,324.450027 1799.45,319.05 C1801.55001,313.649973 1805.14997,305.100058 1810.25,293.4 C1813.25002,284.999958 1814.75,278.700021 1814.75,274.5 C1814.75,270.59998 1816.09999,267.525011 1818.8,265.275 C1821.50001,263.024989 1824.49998,261.9 1827.8,261.9 C1832.00002,261.9 1835.59999,263.549983 1838.6,266.85 C1841.60001,270.150016 1843.1,274.499973 1843.1,279.9 C1843.1,285.000025 1841.90001,290.249973 1839.5,295.65 L1834.55,307.8 C1832.14999,312.600024 1829.07502,320.324947 1825.325,330.975 C1821.57498,341.625053 1819.7,347.549994 1819.7,348.75 C1820,349.650005 1821.04999,349.425007 1822.85,348.075 C1824.65001,346.724993 1826.74999,345.00001 1829.15,342.9 C1831.85001,340.199986 1834.99998,337.500014 1838.6,334.8 C1847.60005,326.399958 1858.32494,318.300039 1870.775,310.5 C1883.22506,302.699961 1892.74997,297.75001 1899.35,295.65 C1903.25002,295.65 1906.17499,296.174995 1908.125,297.225 C1910.07501,298.275005 1912.24999,300.074987 1914.65,302.625 C1917.05001,305.175013 1918.84999,307.049994 1920.05,308.25 C1922.75001,310.950014 1924.1,314.849974 1924.1,319.95 C1924.1,321.450007 1923.8,323.399988 1923.2,325.8 C1921.99999,330.000021 1920.42501,335.09997 1918.475,341.1 C1916.52499,347.10003 1915.1,351.449987 1914.2,354.15 C1916.30001,352.349991 1920.04997,349.200022 1925.45,344.7 C1930.85003,340.199977 1935.79998,336.00002 1940.3,332.1 C1955.30008,320.399942 1967.14996,314.55 1975.85,314.55 C1982.15003,314.55 1987.54998,317.849967 1992.05,324.45 C1994.75001,327.150014 1996.4,329.924986 1997,332.775 C1997.6,335.625014 1997.9,339.449976 1997.9,344.25 L1997.9,355.5 C1998.2,357.60001 1998.35,361.199974 1998.35,366.3 C1998.65,368.700012 1999.025,373.349965 1999.475,380.25 C1999.925,387.150035 2000.6,391.049996 2001.5,391.95 C2003.00001,393.750009 2008.09996,395.399992 2016.8,396.9 C2022.20003,397.800005 2024.9,400.19998 2024.9,404.1 C2024.9,406.800013 2022.95002,409.499986 2019.05,412.2 C2015.14998,414.600012 2010.35003,415.8 2004.65,415.8 C1999.24997,415.8 1994.30002,414.900009 1989.8,413.1 Z" id="path-2"></path>
        <path d="M158.299745,85.4419863 C158.398047,85.4928744 158.506465,85.553879 158.625,85.625 C159.041669,85.8750012 159.499998,86.2499975 160,86.75 C162.500012,88.08334 163.333337,89.9999875 162.5,92.5 C162.333332,93.500005 161.958336,94.2083312 161.375,94.625 C160.791664,95.0416687 159.416677,95.2916662 157.25,95.375 C155.083323,95.4583338 152.250018,95.4166675 148.75,95.25 C142.416635,94.4166625 136.91669,94 132.25,94 C125.249965,94 115.666728,94.833325 103.5,96.5 C100.499985,96.6666675 97.7083463,97.08333 95.125,97.75 C92.5416537,98.41667 90.91667,98.8333325 90.25,99 C89.4166625,99 88.166675,100.249987 86.5,102.75 C84.833325,105.250013 83.33334,108.416648 82,112.25 C80.999995,113.750008 79.2500125,117.708301 76.75,124.125 C74.2499875,130.541699 72.5833375,134.74999 71.75,136.75 C68.083315,146.416715 66.0000025,151.666663 65.5,152.5 C67.50001,153.16667 71.49997,153.5 77.5,153.5 C86.16671,153.5 97.666595,152.83334 112,151.5 C119.666705,149.999993 124.083327,149.499998 125.25,150 C126.250005,150.66667 127.124996,151.916657 127.875,153.75 C128.625004,155.583342 129,157.249992 129,158.75 C129,159.583337 128.833335,160.33333 128.5,161 C127.999998,162.166673 126.208349,163.08333 123.125,163.75 C120.041651,164.41667 114.583373,165.166663 106.75,166 C99.41663,166.66667 88.75007,167 74.75,167 C67.41663,167 63.08334,166.833335 61.75,166.5 C61.416665,166.666668 60.9583363,167.166663 60.375,168 C59.7916637,168.833337 59.5,169.833327 59.5,171 C56.499985,176.33336 52.0833625,186.66659 46.25,202 C40.4166375,217.33341 37.5,226.499985 37.5,229.5 C36.3333275,232.500015 35.41667,235.916648 34.75,239.75 C34.5833325,240.41667 34.333335,241.333327 34,242.5 C33.666665,243.666673 33.333335,244.416665 33,244.75 C33,245.250002 32.4166725,245.5 31.25,245.5 C30.249995,245.5 29.1250062,245.250002 27.875,244.75 C26.6249938,244.249998 25.5833375,243.500005 24.75,242.5 C23.5833275,241.499995 22.7083363,240.66667 22.125,240 C21.5416637,239.33333 21.25,238.500005 21.25,237.5 C21.25,236.16666 21.749995,234.000015 22.75,231 C24.08334,224.99997 26.5416488,216.416722 30.125,205.25 C33.7083512,194.083278 36.9166525,185.666695 39.75,180 C40.9166725,177.99999 41.83333,175.916677 42.5,173.75 C43.16667,171.583323 43.5833325,170.16667 43.75,169.5 C44.5833375,166.499985 45.0833325,164.750002 45.25,164.25 L45,161.75 C45,161.08333 45.166665,160.41667 45.5,159.75 C45.833335,159.08333 46.4166625,158.333337 47.25,157.5 C49.583345,155.49999 52.08332,151.583362 54.75,145.75 L64.25,118.5 L67.25,110 C67.4166675,109.33333 67.7499975,108.166675 68.25,106.5 C68.7500025,104.833325 69,103.66667 69,103 C69,102.33333 68.833335,102 68.5,102 C67.16666,102.333335 64.50002,102.583332 60.5,102.75 C58.49999,103.083335 57.000005,103.291666 56,103.375 C54.999995,103.458334 54.2500025,103.583333 53.75,103.75 L52,103.75 C48.8333175,103.75 47.25,102.583345 47.25,100.25 C47.583335,97.58332 48.5416587,95.3750088 50.125,93.625 C51.7083413,91.8749912 53.7499875,90.9166675 56.25,90.75 L66,88.5 C67.5000075,88.166665 69.5416537,87.7083363 72.125,87.125 C74.7083463,86.5416637 76.499995,86.416665 77.5,86.75 C79.6666775,85.2499925 80.75,84.0833375 80.75,83.25 C80.75,82.4166625 81.1666625,81.7500025 82,81.25 C82.8333375,80.7499975 83.8333275,80.5 85,80.5 C87.333345,80.5 88.999995,81.2499925 90,82.75 C90.66667,83.750005 92.0833225,84.25 94.25,84.25 C97.58335,84.25 103.416625,83.3333425 111.75,81.5 C113.08334,81.3333325 115.374984,81.1250013 118.625,80.875 C121.875016,80.6249987 124.583323,80.5 126.75,80.5 C129.750015,80.5 132.166657,80.7499975 134,81.25 C135.500007,80.916665 136.833327,80.75 138,80.75 C139.166673,80.75 140.166663,80.6666675 141,80.5 C143.833348,80.5 145.58333,80.2500025 146.25,79.75 C147.750007,80.083335 149.458324,80.3749988 151.375,80.625 C153.291676,80.8750012 154.666663,81.166665 155.5,81.5 C156.333337,81.833335 157.08333,82.2499975 157.75,82.75 C158.250002,83.41667 158.5,83.9999975 158.5,84.5 C158.5,84.9475014 158.433249,85.2614944 158.299745,85.4419863 Z M133.5,231 C132.999998,229.999995 132.208339,228.958339 131.125,227.875 C130.041661,226.791661 129.5,226.083335 129.5,225.75 C129.5,223.916657 129.083337,222.500005 128.25,221.5 C127.916665,221.166665 127.75,220.416673 127.75,219.25 C127.75,216.58332 129.041654,212.041699 131.625,205.625 C134.208346,199.208301 137.583313,192.250037 141.75,184.75 C142.750005,183.749995 144.041659,182.000012 145.625,179.5 C147.208341,176.999988 148.249998,175.583335 148.75,175.25 C148.75,174.58333 148.999998,173.958336 149.5,173.375 C150.000002,172.791664 150.58333,172.5 151.25,172.5 L151.25,171 C151.25,169.499992 153.999973,165.875029 159.5,160.125 C165.000027,154.374971 169.499982,150.416677 173,148.25 C177.166688,145.416652 181.416645,144 185.75,144 C188.750015,144 191.333323,144.833325 193.5,146.5 C194.333337,147.500005 198.166632,151.083303 205,157.25 L214.25,165.5 L209.75,178 C208.249993,182.500023 207.5,186.583315 207.5,190.25 C207.5,196.583365 209.333315,202.666638 213,208.5 C213.833338,210.333343 215.499988,212.083325 218,213.75 C220.500012,215.416675 222.999988,216.416665 225.5,216.75 C229.166685,217.41667 231,219.249985 231,222.25 C231,225.58335 229.500015,227.58333 226.5,228.25 C225.83333,228.416668 224.83334,228.5 223.5,228.5 C213.666618,228.5 205.166702,221.583403 198,207.75 C197.33333,206.749995 196.458339,204.91668 195.375,202.25 C194.291661,199.58332 193.666667,197.750005 193.5,196.75 C192.499995,198.08334 191.250008,199.666657 189.75,201.5 C188.249992,203.333343 186.83334,204.91666 185.5,206.25 C167.333242,224.416757 153.000052,233.5 142.5,233.5 C139.16665,233.5 136.16668,232.666675 133.5,231 Z M142.5,217 C142.5,217.833337 143.374991,218.083335 145.125,217.75 C146.875009,217.416665 149.041654,216.58334 151.625,215.25 C154.208346,213.91666 156.83332,212.166677 159.5,210 C173.833405,197.666605 184.166635,186.916712 190.5,177.75 L196,168.75 C194.333325,165.249982 192.583343,162.708341 190.75,161.125 C188.916657,159.541659 187.250008,158.75 185.75,158.75 C182.249983,158.75 176.750038,163.124956 169.25,171.875 C161.749962,180.625044 154.916697,190.916607 148.75,202.75 C147.249993,205.583348 145.916673,208.458319 144.75,211.375 L142.5,217 Z M353.75,229.5 C351.416655,228.666663 349.208344,226.625016 347.125,223.375 C345.041656,220.124984 344,214.83337 344,207.5 L344.25,196 C344.25,193.99999 344.125001,192.583337 343.875,191.75 C343.624999,190.916663 343.16667,190.5 342.5,190.5 C340.333323,190.5 335.708369,193.333305 328.625,199 C321.541631,204.666695 314.416702,211.416628 307.25,219.25 C306.416662,220.083337 305.291674,221.291659 303.875,222.875 C302.458326,224.458341 301.166673,225.624996 300,226.375 C298.833327,227.125004 297.750005,227.5 296.75,227.5 C295.249992,227.5 293.83334,226.916673 292.5,225.75 L289.75,223.5 C288.583327,222.499995 288,221.33334 288,220 L288.5,217.75 L294.25,201.25 C297.916685,192.749957 300.08333,187.375011 300.75,185.125 C301.41667,182.874989 301.333337,181.833333 300.5,182 C298.999993,182.166667 296.91668,182.958326 294.25,184.375 C291.58332,185.791674 289.91667,187.16666 289.25,188.5 C288.916665,188.5 287.833343,189.374991 286,191.125 C284.166657,192.875009 282.58334,194.166663 281.25,195 C279.749992,197.166677 276.083363,201.083305 270.25,206.75 L264.25,212.5 C261.749987,214.50001 258.250023,218.583303 253.75,224.75 C251.416655,227.750015 250.083335,229.25 249.75,229.25 C244.583307,229.25 241.33334,226.750025 240,221.75 C239.33333,220.583327 239,219.00001 239,217 C239,214.33332 239.99999,208.833375 242,200.5 C243.500008,194.833305 244.333333,191.33334 244.5,190 L245.75,185 C246.083335,182.833323 246.833327,180.250015 248,177.25 C249.166673,174.249985 251.166652,169.500033 254,163 C255.666675,158.33331 256.5,154.833345 256.5,152.5 C256.5,150.333323 257.249993,148.625006 258.75,147.375 C260.250007,146.124994 261.916657,145.5 263.75,145.5 C266.083345,145.5 268.083325,146.416657 269.75,148.25 C271.416675,150.083342 272.25,152.499985 272.25,155.5 C272.25,158.333348 271.58334,161.249985 270.25,164.25 L267.5,171 C266.16666,173.66668 264.458344,177.958304 262.375,183.875 C260.291656,189.791696 259.25,193.08333 259.25,193.75 C259.416668,194.250002 259.999995,194.125004 261,193.375 C262.000005,192.624996 263.16666,191.666673 264.5,190.5 C266.000007,188.999993 267.74999,187.500008 269.75,186 C274.750025,181.33331 280.708299,176.833355 287.625,172.5 C294.541701,168.166645 299.833315,165.416673 303.5,164.25 C305.666677,164.25 307.291661,164.541664 308.375,165.125 C309.458339,165.708336 310.66666,166.708326 312,168.125 C313.33334,169.541674 314.33333,170.58333 315,171.25 C316.500008,172.750008 317.25,174.916652 317.25,177.75 C317.25,178.583337 317.083335,179.66666 316.75,181 C316.08333,183.333345 315.208339,186.16665 314.125,189.5 C313.041661,192.83335 312.250002,195.249992 311.75,196.75 C312.916673,195.749995 314.999985,194.000012 318,191.5 C321.000015,188.999988 323.749987,186.666677 326.25,184.5 C334.583375,177.999967 341.166643,174.75 346,174.75 C349.500018,174.75 352.499987,176.583315 355,180.25 C356.500008,181.750008 357.416665,183.291659 357.75,184.875 C358.083335,186.458341 358.25,188.58332 358.25,191.25 L358.25,197.5 C358.416668,198.666673 358.5,200.666652 358.5,203.5 C358.666668,204.83334 358.874999,207.416648 359.125,211.25 C359.375001,215.083352 359.749998,217.249998 360.25,217.75 C361.083338,218.750005 363.916643,219.666663 368.75,220.5 C371.750015,221.000002 373.25,222.333323 373.25,224.5 C373.25,226.000007 372.166677,227.499992 370,229 C367.833323,230.33334 365.166682,231 362,231 C358.999985,231 356.250013,230.500005 353.75,229.5 Z M422.25,132.5 C421.749997,133.000002 421.250002,133.25 420.75,133.25 C420.08333,133.25 419.000007,132.750005 417.5,131.75 C415.833325,131.583333 413.625014,130.125014 410.875,127.375 C408.124986,124.624986 406.75,122.833337 406.75,122 C406.416665,118.66665 406.91666,115.083352 408.25,111.25 C409.58334,107.416648 411.999982,105.416668 415.5,105.25 C416.000002,105.25 416.666662,105.374999 417.5,105.625 C418.333337,105.875001 419.74999,106.416663 421.75,107.25 L423.875,111.5 C424.958339,113.666677 425.791664,115.74999 426.375,117.75 C426.958336,119.75001 427.25,121.583325 427.25,123.25 C427.25,127.25002 425.58335,130.333323 422.25,132.5 Z M394,232.25 C391.499987,232.25 389.291676,230.666683 387.375,227.5 C385.458324,224.333317 384.333335,221.166683 384,218 C384.66667,211.666635 385.166665,207.16668 385.5,204.5 C386.83334,198.333303 388.958319,189.875054 391.875,179.125 C394.791681,168.374946 396.58333,162.33334 397.25,161 C397.750002,160.166663 398.499995,159.75 399.5,159.75 C400.500005,159.75 401.583327,160.08333 402.75,160.75 C403.916673,161.41667 404.916662,162.166663 405.75,163 C407.08334,164.833342 407.75,166.916655 407.75,169.25 C407.75,172.750018 406.08335,180.083278 402.75,191.25 C400.416655,199.583375 398.91667,205.499982 398.25,209 C397.58333,212.500017 397.333332,216.24998 397.5,220.25 C397.333332,221.416673 397.041669,223.374986 396.625,226.125 C396.208331,228.875014 395.833335,230.58333 395.5,231.25 C395.166665,231.91667 394.66667,232.25 394,232.25 Z M431.75,228.25 C429.916657,227.249995 428.625004,226.250005 427.875,225.25 C427.124996,224.249995 426.75,222.833343 426.75,221 C426.75,217.66665 427.74999,212.33337 429.75,205 C430.250003,200.833313 430.791664,197.458346 431.375,194.875 C431.958336,192.291654 432.999992,189.750012 434.5,187.25 C435.16667,184.749988 436.333325,181.000025 438,176 C441.666685,164.333275 444.16666,155.333365 445.5,149 C446.83334,145.333315 447.999995,142.083348 449,139.25 C450.000005,136.416652 450.916663,133.833345 451.75,131.5 C451.416665,132.500005 453.499977,126.833395 458,114.5 C459.33334,110.49998 460.249998,107.416677 460.75,105.25 C462.583342,97.7499625 464.666655,92.0833525 467,88.25 C468.166673,86.583325 469.041664,85.1666725 469.625,84 C470.208336,82.8333275 470.749998,81.91667 471.25,81.25 C471.25,80.916665 471.499997,80.6250013 472,80.375 C472.500002,80.1249988 473.08333,80 473.75,80 C475.75001,80 477.41666,80.66666 478.75,82 C479.583337,81.666665 480.624994,82.666655 481.875,85 C483.125006,87.333345 483.666668,89.16666 483.5,90.5 C483.5,92.6666775 482.916673,94.6666575 481.75,96.5 C481.08333,97.16667 480.333337,98.3749912 479.5,100.125 C478.666663,101.875009 477.91667,103.333327 477.25,104.5 C476.916665,105.666673 476.375004,107.624986 475.625,110.375 C474.874996,113.125014 474.16667,115.416658 473.5,117.25 C472.666663,119.25001 471.875004,121.124991 471.125,122.875 C470.374996,124.625009 469.750003,126.16666 469.25,127.5 C468.58333,129.666677 467.416675,132.916645 465.75,137.25 C463.416655,142.916695 461.833337,147.333317 461,150.5 C460.666665,151.500005 460.083337,153.583318 459.25,156.75 C456.916655,165.083375 454.666677,171.166648 452.5,175 C451.16666,177.166677 450.208336,180.083315 449.625,183.75 C449.041664,187.416685 448.666668,189.666663 448.5,190.5 C445.999988,198.000038 444.75,202.41666 444.75,203.75 C444.416665,205.250007 443.833337,208.166645 443,212.5 C441.999995,217.83336 441.000005,221.666655 440,224 C439.666665,227.833352 438.416677,229.75 436.25,229.75 C434.91666,229.75 433.416675,229.250005 431.75,228.25 Z M487.5,297.5 C487.333332,297.833335 486.58334,297.500005 485.25,296.5 C483.91666,295.499995 482.708339,294.250007 481.625,292.75 C480.541661,291.249993 480.083332,290.083337 480.25,289.25 C479.916665,287.91666 479.75,286.750005 479.75,285.75 C479.75,281.74998 482.08331,275.000047 486.75,265.5 C487.750005,263.666657 489.416655,260.166693 491.75,255 C493.250007,251.166648 494.749992,247.833348 496.25,245 C496.583335,244.33333 499.499973,239.166715 505,229.5 C510.500027,219.833285 515.166647,210.083382 519,200.25 C516.166653,203.250015 512.666688,207.166642 508.5,212 C503.666643,218.00003 499.708349,222.374986 496.625,225.125 C493.541651,227.875014 490.750013,229.166668 488.25,229 C485.249985,228.33333 482.75001,227.416673 480.75,226.25 C478.74999,225.083327 477.333337,223.250012 476.5,220.75 C475.999998,217.916652 475.75,214.83335 475.75,211.5 C475.75,203.999962 476.833323,193.833397 479,181 C480.666675,173.833298 481.5,168.58335 481.5,165.25 C481.5,163.24999 481.250002,161.666673 480.75,160.5 C480.249998,159.333327 479.416673,158.166673 478.25,157 C475.916655,154.99999 474.75,153.166675 474.75,151.5 C474.75,150.16666 475.916655,148.83334 478.25,147.5 C480.416677,146.83333 482.416657,146.5 484.25,146.5 C485.58334,146.5 486.749995,146.791664 487.75,147.375 C488.750005,147.958336 489.91666,149.083325 491.25,150.75 C491.750003,151.583337 492.499995,152.791659 493.5,154.375 C494.500005,155.958341 495.249998,157.708324 495.75,159.625 C496.250002,161.541676 496.5,163.916652 496.5,166.75 C496.333332,168.08334 495.666673,173.333287 494.5,182.5 C493.666663,186.333352 493.25,188.91666 493.25,190.25 C491.083323,198.25004 490,204.833307 490,210 C490,212.00001 490.249998,213 490.75,213 C495.250023,209.333315 499.708311,204.83336 504.125,199.5 C508.541689,194.16664 514.333297,186.666715 521.5,177 C522.16667,175.833327 523.458324,173.541684 525.375,170.125 C527.291676,166.708316 528.749995,163.500015 529.75,160.5 C531.916677,155.666642 533.749992,153.166668 535.25,153 C536.250005,152.666665 537.833323,152.999995 540,154 C542.166677,155.000005 543.333332,155.749998 543.5,156.25 C543.5,156.416667 544.249992,156.624999 545.75,156.875 C547.250008,157.125001 548,157.499998 548,158 C548,158.333335 547.083342,160.83331 545.25,165.5 C542.416653,172.333368 541.083333,175.999998 541.25,176.5 C541.750002,177.16667 540.875011,179.999975 538.625,185 C536.374989,190.000025 535.083335,192.916662 534.75,193.75 C530.583312,207.0834 526.083357,217.916625 521.25,226.25 C519.583325,229.250015 515.583365,237.999928 509.25,252.5 L507.25,257.25 C505.583325,260.916685 503.75001,265.124976 501.75,269.875 C499.74999,274.625024 498.000008,278.833315 496.5,282.5 C495.499995,284.50001 494.791669,286.124994 494.375,287.375 C493.958331,288.625006 493.583335,289.58333 493.25,290.25 C492.916665,293.416682 492.166673,295.749993 491,297.25 L487.5,297.5 Z M715.25,253.25 C713.083323,253.416668 711.125009,252.958339 709.375,251.875 C707.624991,250.791661 706.41667,249.416675 705.75,247.75 C704.749995,246.749995 703.666673,245.25001 702.5,243.25 C701.333327,241.24999 700.583335,239.333343 700.25,237.5 C699.58333,229.49996 699.25,223.666685 699.25,220 C699.25,215.33331 699.499998,209.00004 700,201 C700.500002,193.333295 701.458326,186.125034 702.875,179.375 C704.291674,172.624966 706.249987,164.333382 708.75,154.5 C709.750005,151.333317 710.499998,148.625011 711,146.375 C711.500002,144.124989 711.500002,143 711,143 C710.166663,143.166667 708.666677,145.291646 706.5,149.375 C704.333323,153.458354 702.166677,157.83331 700,162.5 C698.999995,164.333343 698.041671,166.291656 697.125,168.375 C696.208329,170.458344 695.250005,172.416657 694.25,174.25 C689.58331,184.583385 681.000063,200.249895 668.5,221.25 C666.999992,223.083343 664.91668,225.99998 662.25,230 C657.083308,237.833372 652.83335,243.249985 649.5,246.25 C645.333312,250.25002 641.166687,252.25 637,252.25 C633.999985,252.25 631.50001,251.25001 629.5,249.25 C627.333323,246.58332 626.25,244.000012 626.25,241.5 C626.25,240.83333 626.416665,239.666675 626.75,238 C626.249998,233.833313 626.708326,225.291731 628.125,212.375 C629.541674,199.458269 630.999992,188.66671 632.5,180 C633.666673,171.99996 636.24998,158.833425 640.25,140.5 L645.75,113.5 C646.750005,110.999988 648.333323,106.000038 650.5,98.5 L652.75,90.25 C652.916668,87.249985 653.583327,85.0416738 654.75,83.625 C655.916673,82.2083262 657.333325,81.5 659,81.5 C661.333345,81.5 663.333325,82.5833225 665,84.75 C667.66668,87.750015 669,91.3333125 669,95.5 C669,98.83335 668.250008,102.249982 666.75,105.75 C659.249963,124.083425 653.250023,148.24985 648.75,178.25 C647.083325,188.083382 645.541674,198.624944 644.125,209.875 C642.708326,221.125056 642.33333,226.833332 643,227 C644.33334,227.333335 646.166655,226.291679 648.5,223.875 C650.833345,221.458321 652.916658,218.25002 654.75,214.25 C666.08339,195.416573 679.333257,171.250147 694.5,141.75 C694.833335,141.249998 698.499965,134.416733 705.5,121.25 L711.5,110 C712.000002,108.999995 712.624996,107.875006 713.375,106.625 C714.125004,105.374994 714.916663,104.08334 715.75,102.75 C719.416685,95.9166325 722.291656,90.83335 724.375,87.5 C726.458344,84.16665 728.083327,82.2500025 729.25,81.75 C732.083347,81.9166675 734.416657,82.6249937 736.25,83.875 C738.083343,85.1250063 739.66666,87.249985 741,90.25 C741.166668,91.0833375 741.041669,92.4583237 740.625,94.375 C740.208331,96.2916763 739.66667,98.083325 739,99.75 C738.666665,100.750005 737.875006,103.24998 736.625,107.25 C735.374994,111.25002 734.333337,115.24998 733.5,119.25 C730.333318,127.583375 728.000008,135.666628 726.5,143.5 C725.333327,149.50003 724.08334,155.333305 722.75,161 C719.916653,173.833397 717.791674,184.416625 716.375,192.75 C714.958326,201.083375 714.166668,208.5833 714,215.25 C713.833332,223.750043 714.333327,229.499985 715.5,232.5 C716.000003,234.166675 717.24999,235 719.25,235 C720.750008,235 721.999995,234.416673 723,233.25 C727.833358,226.916635 731.833318,221.333358 735,216.5 C738.166682,211.666642 741.583315,205.9167 745.25,199.25 C755.416718,180.249905 767.49993,154.166832 781.5,121 C786.83336,105.66659 790.458324,95.66669 792.375,91 C794.291676,86.33331 796.499987,83.33334 799,82 C800.000005,81.33333 800.999995,81 802,81 C803.833342,81 805.499992,81.66666 807,83 C807.66667,83.66667 808.291664,84.7499925 808.875,86.25 C809.458336,87.7500075 809.666667,89.4166575 809.5,91.25 C807.833325,97.0833625 803.958364,107.958254 797.875,123.875 C791.791636,139.791746 787.08335,151.333298 783.75,158.5 C783.08333,159.666673 781.75001,161.91665 779.75,165.25 C779.416665,165.750002 778.708339,166.958324 777.625,168.875 C776.541661,170.791676 776,172.249995 776,173.25 C776,174.916675 771.625044,183.624921 762.875,199.375 C754.124956,215.125079 747.666687,225.66664 743.5,231 C737.999973,238.000035 732.458361,243.458314 726.875,247.375 C721.291639,251.291686 717.416677,253.25 715.25,253.25 Z M821,238.5 C818.99999,238.666668 817.375006,238.541669 816.125,238.125 C814.874994,237.708331 813.083345,236.750007 810.75,235.25 C803.583298,229.416638 800.083333,223.666695 800.25,218 C800.416668,217.499998 800.5,216.750005 800.5,215.75 C800.5,214.749995 800.416668,213.958336 800.25,213.375 C800.083333,212.791664 800,212.416668 800,212.25 C799.33333,211.749998 798.958334,211.375001 798.875,211.125 C798.791666,210.874999 798.874999,210.583335 799.125,210.25 C799.375001,209.916665 799.583333,209.583335 799.75,209.25 C800.41667,209.083332 800.75,208.750002 800.75,208.25 C800.75,207.749998 800.583335,207.16667 800.25,206.5 C799.749998,205.16666 800.041661,202.125024 801.125,197.375 C802.208339,192.624976 803.666658,188.166687 805.5,184 C806.83334,180.833317 808.958319,176.750025 811.875,171.75 C814.791681,166.749975 817.499988,162.91668 820,160.25 C823.500018,156.24998 826.708319,153.166677 829.625,151 C832.541681,148.833323 835.916648,147.08334 839.75,145.75 C843.250018,144.249992 845.66666,143.5 847,143.5 C848.666675,143.5 850.749988,144.49999 853.25,146.5 C857.25002,147.666673 860.291656,149.291656 862.375,151.375 C864.458344,153.458344 866.083328,156.666645 867.25,161 C868.250005,164.500018 868.75,168.416645 868.75,172.75 C868.75,182.08338 865.833363,192.333278 860,203.5 C856.999985,209.50003 854.083348,214.124984 851.25,217.375 C848.416653,220.625016 844.500025,224.416645 839.5,228.75 C835.999983,231.583348 832.958346,233.749993 830.375,235.25 C827.791654,236.750007 824.666685,237.83333 821,238.5 Z M841,208.75 C844.500018,203.583307 847.166658,198.875021 849,194.625 C850.833343,190.374979 852.333327,185.083365 853.5,178.75 C853.666667,178.08333 853.75,176.75001 853.75,174.75 C853.75,171.41665 853.41667,168.250015 852.75,165.25 C852.08333,162.249985 851.250005,160.666667 850.25,160.5 C848.91666,159.999998 847.666673,159.75 846.5,159.75 C842.666647,159.75 838.583355,161.999977 834.25,166.5 C830.24998,171.16669 826.791681,176.791634 823.875,183.375 C820.958319,189.958366 818.083348,197.999953 815.25,207.5 C814.416663,210.83335 814,213.49999 814,215.5 C814,218.500015 814.583327,220.874991 815.75,222.625 C816.916673,224.375009 818.583323,225.25 820.75,225.25 C823.41668,225.25 826.499982,223.875014 830,221.125 C833.500018,218.374986 837.166647,214.250027 841,208.75 Z M888.75,231.25 C887.41666,230.249995 886.500003,229.333337 886,228.5 C885.499998,227.666663 885.25,226.416675 885.25,224.75 C885.25,223.249993 885.333333,222.000005 885.5,221 C886.000002,215.333305 887.24999,208.750038 889.25,201.25 L890.5,196.25 C891.000002,192.083312 893.91664,183.3334 899.25,170 C904.58336,156.6666 908.91665,147.583358 912.25,142.75 C913.58334,141.916663 914.999993,141.5 916.5,141.5 C918.666677,141.5 920.499992,142.249992 922,143.75 C923.000005,144.41667 923.5,145.666657 923.5,147.5 C923.5,149.166675 922.875006,151.624984 921.625,154.875 C920.374994,158.125016 918.250015,162.916635 915.25,169.25 C914.58333,170.58334 913.458341,173.083315 911.875,176.75 C910.291659,180.416685 909.5,182.58333 909.5,183.25 C909.5,183.583335 909.583332,183.75 909.75,183.75 C910.083335,183.75 910.416665,183.625001 910.75,183.375 C911.083335,183.124999 911.416665,182.916668 911.75,182.75 C913.583342,179.583317 918.041631,175.250027 925.125,169.75 C932.208369,164.249973 937.08332,160.83334 939.75,159.5 C940.916673,158.83333 942.416657,158.16667 944.25,157.5 C946.083343,156.83333 947.33333,156.333335 948,156 C950.66668,154.66666 953.833315,154 957.5,154 C959.833345,154 961.874991,154.374996 963.625,155.125 C965.375009,155.875004 966.58333,156.999992 967.25,158.5 C967.416668,159.666673 967.874996,160.58333 968.625,161.25 C969.375004,161.91667 969.916665,162.333332 970.25,162.5 C970.750002,162.5 971.083333,162.708331 971.25,163.125 C971.416668,163.541669 971.5,163.833333 971.5,164 C971.5,165.166673 970.83334,165.874999 969.5,166.125 C968.16666,166.375001 965.750018,166.583333 962.25,166.75 C960.416658,166.916668 958.50001,167.33333 956.5,168 C954.49999,168.66667 952.50001,169.499995 950.5,170.5 C941.16662,175.83336 934.208356,179.999985 929.625,183 C925.041644,186.000015 920.41669,190.083307 915.75,195.25 C913.916657,197.25001 911.500015,200.833307 908.5,206 C907.333327,207.166673 906.125006,210.208309 904.875,215.125 C903.624994,220.041691 903,223.083327 903,224.25 C902.833332,224.750002 902.500002,225.708326 902,227.125 C901.499997,228.541674 900.750005,229.91666 899.75,231.25 C897.74999,233.91668 896.08334,235.25 894.75,235.25 C893.249992,235.25 891.250012,233.91668 888.75,231.25 Z M1030.75,175 C1026.24998,177.66668 1022.58335,180.33332 1019.75,183 C1018.75,183.833337 1017.25001,185.124991 1015.25,186.875 C1013.24999,188.625009 1011.50001,189.916663 1010,190.75 C1011.33334,193.083345 1012.41666,194.666663 1013.25,195.5 L1017.5,202 C1023.16669,210.833378 1027.33332,216.666652 1030,219.5 C1032.66668,222.333348 1036.74997,225.41665 1042.25,228.75 C1043.75001,229.916673 1044.41667,231.416657 1044.25,233.25 C1043.58333,235.083343 1042.875,236.208331 1042.125,236.625 C1041.375,237.041669 1039.16668,237.666663 1035.5,238.5 C1032.99999,238.333332 1031.12501,237.91667 1029.875,237.25 C1028.62499,236.58333 1026.00002,234.750015 1022,231.75 C1019.33332,229.249988 1015.45836,224.791699 1010.375,218.375 C1005.29164,211.958301 1000.66669,205.833363 996.5,200 C995.666663,199.666665 995.000002,198.83334 994.5,197.5 C991.499985,204.666702 990,208.999993 990,210.5 C988.999995,213.333348 988.250002,216.249985 987.75,219.25 C986.583327,224.416693 985.33334,228.249988 984,230.75 C983.666665,234.416685 982.416677,236.25 980.25,236.25 C979.083327,236.25 977.583342,235.666673 975.75,234.5 C974.083325,233.499995 972.875004,232.500005 972.125,231.5 C971.374996,230.499995 971,229.250008 971,227.75 C971,225.416655 971.416663,222.750015 972.25,219.75 C973.083337,216.749985 973.999995,213.833348 975,211 C975.66667,206.99998 976.374996,203.708346 977.125,201.125 C977.875004,198.541654 979.083325,196.000012 980.75,193.5 C982.08334,189.49998 983.41666,185.83335 984.75,182.5 C989.250023,169.666603 992.16666,160.833358 993.5,156 C995.50001,151.666645 997.416658,147.083357 999.25,142.25 C1001.25001,138.083313 1004.16665,131.33338 1008,122 L1011,113.25 C1013.33335,105.749962 1015.74999,100.166685 1018.25,96.5 C1018.75,95.83333 1020.24999,93.50002 1022.75,89.5 C1022.91667,88.83333 1023.58333,88.5 1024.75,88.5 C1025.91667,88.5 1027,88.7083312 1028,89.125 C1029,89.5416687 1029.75,90.08333 1030.25,90.75 C1031.08334,90.5833325 1032.04166,91.666655 1033.125,94 C1034.20834,96.333345 1034.66667,98.16666 1034.5,99.5 C1034.5,101.333343 1033.83334,103.333323 1032.5,105.5 C1032,106.000002 1031.33334,106.999992 1030.5,108.5 C1029.66666,110.000008 1028.66667,111.583325 1027.5,113.25 C1027,114.750007 1026.375,116.83332 1025.625,119.5 C1024.875,122.16668 1024.08334,124.249993 1023.25,125.75 C1022.58333,127.250007 1021.70834,129.041656 1020.625,131.125 C1019.54166,133.208344 1018.83334,134.749995 1018.5,135.75 C1017.66666,137.916677 1016.25001,141.166645 1014.25,145.5 C1011.41665,151.833365 1009.66667,156.083323 1009,158.25 C1008.66666,159.416673 1007.75001,162.208311 1006.25,166.625 C1004.74999,171.041689 1003.08334,175.083315 1001.25,178.75 C1001.91667,177.916662 1002.5,177.291669 1003,176.875 C1003.5,176.458331 1003.91666,176.000002 1004.25,175.5 C1004.41667,174.83333 1005.37499,173.83334 1007.125,172.5 C1008.87501,171.16666 1010.08333,170.16667 1010.75,169.5 C1015.41669,166.666652 1021.4583,162.375029 1028.875,156.625 C1036.2917,150.874971 1040.66666,147.33334 1042,146 C1043,144.999995 1044,144.5 1045,144.5 C1045.83334,144.5 1046.74999,144.749998 1047.75,145.25 C1049.75001,145.750002 1051.08333,146.541661 1051.75,147.625 C1052.41667,148.708339 1052.75,150.749985 1052.75,153.75 C1053.25,155.583342 1052.58334,157.49999 1050.75,159.5 C1048.91666,161.50001 1046.00002,163.83332 1042,166.5 C1037.66665,169.333348 1033.91668,172.166652 1030.75,175 Z M1088.25,236.5 C1079.91663,236.5 1073.83335,233.50003 1070,227.5 C1068.83333,226.16666 1068.25,224.50001 1068.25,222.5 C1068.25,221.499995 1068.45833,220.625004 1068.875,219.875 C1069.29167,219.124996 1069.83333,218.75 1070.5,218.75 C1071.33334,218.75 1072.24999,219.333327 1073.25,220.5 C1075.58335,221.83334 1078.91665,222.5 1083.25,222.5 C1087.91669,222.5 1092.49998,221.666675 1097,220 C1102.33336,217.666655 1103.83335,215.83334 1101.5,214.5 L1101.75,214.5 C1095.24997,212.833325 1088.7917,209.625024 1082.375,204.875 C1075.9583,200.124976 1072.41667,195.833352 1071.75,192 C1071.25,189.99999 1071,187.916677 1071,185.75 C1071,181.583313 1071.91666,177.416687 1073.75,173.25 C1075.58334,169.083313 1078.08332,165.250018 1081.25,161.75 C1086.25003,158.583317 1089.49999,156.833335 1091,156.5 L1091,156.75 C1093.83335,153.916652 1097.29165,151.50001 1101.375,149.5 C1105.45835,147.49999 1110.74997,145.416677 1117.25,143.25 L1121,142.75 L1126,142.25 C1126.16667,142.416668 1126.58333,142.583333 1127.25,142.75 L1129.25,143.25 C1130.25,143.750002 1131.08333,144 1131.75,144 C1134.91668,144.500002 1137.70832,146.41665 1140.125,149.75 C1142.54168,153.08335 1143.58333,156.249985 1143.25,159.25 C1142.91666,162.58335 1141.95834,165.458321 1140.375,167.875 C1138.79166,170.291679 1136.91668,171.666665 1134.75,172 C1134.91667,171.833332 1134.58334,171.500002 1133.75,171 C1132.91666,170.499998 1132.25,170.083335 1131.75,169.75 L1131,170.25 C1131,170.083332 1130.95833,169.791669 1130.875,169.375 C1130.79167,168.958331 1130.58334,168.500002 1130.25,168 C1129.75,166.999995 1129.5,165.750008 1129.5,164.25 L1129.75,160.5 L1130.25,158 C1130.25,157.499998 1129.91667,157.125001 1129.25,156.875 C1128.58333,156.624999 1127.66667,156.5 1126.5,156.5 L1124.5,156.25 C1121.83332,156.25 1118.58335,156.91666 1114.75,158.25 C1110.91665,159.58334 1107.75001,161.24999 1105.25,163.25 C1099.5833,166.916685 1095.37501,170.124986 1092.625,172.875 C1089.87499,175.625014 1087.66667,178.833315 1086,182.5 C1083.99999,185.333348 1083,187.41666 1083,188.75 C1083,190.583342 1084.29165,192.416657 1086.875,194.25 C1089.45835,196.083342 1093.66664,198.33332 1099.5,201 C1104.16669,203.00001 1107.95832,205.083323 1110.875,207.25 C1113.79168,209.416677 1115.74999,211.83332 1116.75,214.5 C1116.91667,214.833335 1117,215.499995 1117,216.5 C1117,217.666673 1116.83334,218.416665 1116.5,218.75 C1116.83334,219.083335 1117,219.333332 1117,219.5 L1117,219.25 C1117.66667,220.58334 1118,221.666663 1118,222.5 C1118,225.16668 1116.33335,227.624989 1113,229.875 C1109.66665,232.125011 1105.41669,233.749995 1100.25,234.75 L1100.5,234.75 C1096.49998,235.916673 1092.41669,236.5 1088.25,236.5 Z M1158,226.5 C1155.49999,226.5 1153.58334,225.916673 1152.25,224.75 C1150.91666,223.583327 1150.04167,222.66667 1149.625,222 C1149.20833,221.33333 1149,220.500005 1149,219.5 C1149,218.83333 1149.58333,215.750027 1150.75,210.25 L1153,202 C1154.66667,195.166632 1156.16666,189.500023 1157.5,185 C1158.16667,180.833312 1159.45832,176.41669 1161.375,171.75 C1163.29168,167.08331 1164.41666,164.250005 1164.75,163.25 C1166.08334,158.416642 1168.66665,150.916718 1172.5,140.75 L1180,120.5 C1185.83336,104.666587 1189.33333,95.0000175 1190.5,91.5 L1194.5,80.5 C1194.5,77.83332 1195.83332,76.5 1198.5,76.5 C1200.83335,76.5 1202.79166,77.7916538 1204.375,80.375 C1205.95834,82.9583462 1206.75,85.91665 1206.75,89.25 C1206.75,91.7500125 1206.25,94.166655 1205.25,96.5 C1202.91665,101.500025 1200.37501,107.791629 1197.625,115.375 C1194.87499,122.958371 1193.08334,127.916655 1192.25,130.25 C1186.58331,146.25008 1182.50001,156.91664 1180,162.25 C1180,162.91667 1179.75,164.083325 1179.25,165.75 C1178.75,167.416675 1178.16667,168.91666 1177.5,170.25 L1174.75,175.75 C1174.75,176.250002 1173.83334,179.749967 1172,186.25 C1169.66665,193.416702 1168.25,198.66665 1167.75,202 C1168.58334,200.499992 1170.33332,198.208349 1173,195.125 C1175.66668,192.041651 1178.16665,189.50001 1180.5,187.5 C1189.66671,179.666628 1195.33332,175.000008 1197.5,173.5 C1199.50001,172.333327 1201.16666,171.250005 1202.5,170.25 C1203.83334,169.249995 1204.75,168.583335 1205.25,168.25 C1205.25,167.416663 1206.16666,167 1208,167 C1208.66667,167 1209.04167,166.916668 1209.125,166.75 C1209.20833,166.583333 1209.25,166.16667 1209.25,165.5 C1209.25,164.333327 1211.16665,163.291671 1215,162.375 C1218.83335,161.458329 1222.24998,161 1225.25,161 C1227.25001,161 1228.83333,161.416663 1230,162.25 C1231.16667,163.083338 1232.66666,164.916652 1234.5,167.75 C1237.33335,171.75002 1238.75,176.08331 1238.75,180.75 C1238.75,183.41668 1238.25,186.166652 1237.25,189 C1237.25,190.33334 1237.04167,192.374986 1236.625,195.125 C1236.20833,197.875014 1236,200.24999 1236,202.25 L1234.5,210.25 L1238.5,210.25 C1239.66667,210.25 1240.79166,210.416665 1241.875,210.75 C1242.95834,211.083335 1243.66666,211.333333 1244,211.5 C1245.50001,213.333342 1246.83333,214.25 1248,214.25 C1249.50001,214.25 1250.25,214.833327 1250.25,216 C1250.25,216.66667 1249.91667,217.499995 1249.25,218.5 C1248.58333,219.500005 1247.66667,220.33333 1246.5,221 C1242.16665,223.66668 1238.50002,225 1235.5,225 C1232.66665,225 1229.75002,223.66668 1226.75,221 C1223.08332,217.333315 1221.25,212.916693 1221.25,207.75 C1221.25,205.08332 1221.75,201.916685 1222.75,198.25 L1223.5,190.25 C1223.83334,186.24998 1224,183.750005 1224,182.75 C1224,178.916648 1223.08334,177 1221.25,177 C1218.91665,177 1214.45837,179.041646 1207.875,183.125 C1201.29163,187.208354 1194.50004,192.291636 1187.5,198.375 C1180.49996,204.458364 1174.91669,210.583303 1170.75,216.75 C1168.24999,219.916683 1166.12501,222.291659 1164.375,223.875 C1162.62499,225.458341 1161.00001,226.333332 1159.5,226.5 L1158,226.5 Z M1283.75,236.25 C1281.74999,236.25 1280.16667,235.91667 1279,235.25 C1277.83333,234.58333 1276.16668,233.333343 1274,231.5 C1268.49997,225.666637 1265.75,220.333358 1265.75,215.5 C1265.75,214.333327 1265.83333,213.500002 1266,213 C1266.5,211.833327 1266.70833,210.666673 1266.625,209.5 C1266.54167,208.333327 1266.5,207.583335 1266.5,207.25 C1265.83333,206.58333 1265.5,206.125001 1265.5,205.875 C1265.5,205.624999 1265.66666,205.375001 1266,205.125 C1266.33334,204.874999 1266.58333,204.583335 1266.75,204.25 C1267.75001,204.25 1268.08334,203.333343 1267.75,201.5 C1267.41666,200.16666 1268.08333,197.208356 1269.75,192.625 C1271.41667,188.041644 1273.49999,183.833352 1276,180 C1277.83334,176.999985 1280.54165,173.250023 1284.125,168.75 C1287.70835,164.249977 1290.91665,160.833345 1293.75,158.5 C1297.75002,154.999982 1301.33332,152.416675 1304.5,150.75 C1307.66668,149.083325 1311.16665,147.833337 1315,147 C1318.33335,146.166663 1320.58333,145.75 1321.75,145.75 C1322.91667,145.75 1323.95833,146.041664 1324.875,146.625 C1325.79167,147.208336 1326.99999,148.249992 1328.5,149.75 C1333.00002,151.75001 1336.12499,154.291651 1337.875,157.375 C1339.62501,160.458349 1340.5,165.249967 1340.5,171.75 C1340.5,182.583388 1336.08338,194.33327 1327.25,207 C1323.41665,212.500027 1319.83335,216.708319 1316.5,219.625 C1313.16665,222.541681 1308.75003,225.66665 1303.25,229 C1299.74998,231.500012 1296.54168,233.291661 1293.625,234.375 C1290.70832,235.458339 1287.41668,236.083333 1283.75,236.25 Z M1307.75,209.75 C1311.75002,205.249977 1314.95832,201.00002 1317.375,197 C1319.79168,192.99998 1322.08332,187.916697 1324.25,181.75 C1325.08334,178.916652 1325.5,175.50002 1325.5,171.5 C1325.5,166.499975 1324.83334,163.66667 1323.5,163 C1321.83333,162.166663 1320.16667,161.75 1318.5,161.75 C1314.83331,161.75 1311.00002,163.41665 1307,166.75 C1302.16664,170.916687 1297.83335,176.041636 1294,182.125 C1290.16665,188.208364 1286.25002,195.749955 1282.25,204.75 C1280.58333,208.250018 1279.75,211.66665 1279.75,215 C1279.75,217.500012 1280.37499,219.499992 1281.625,221 C1282.87501,222.500008 1284.58332,223.25 1286.75,223.25 C1292.25003,223.25 1299.24996,218.750045 1307.75,209.75 Z M1355.75,283.75 C1354.75,284.250002 1353.83334,284.5 1353,284.5 C1350.66665,284.5 1348.66667,283.291679 1347,280.875 C1345.33333,278.458321 1344.5,275.58335 1344.5,272.25 C1344.5,270.749993 1344.75,269.083343 1345.25,267.25 C1345.41667,266.58333 1345.875,265.041679 1346.625,262.625 C1347.375,260.208321 1347.83333,258.166675 1348,256.5 C1348.33334,254.666657 1349.33333,251.333358 1351,246.5 C1352.66667,241.666642 1354,238.416675 1355,236.75 C1355.83334,235.249993 1356.5,233.458344 1357,231.375 C1357.5,229.291656 1357.75,227.500007 1357.75,226 C1358.91667,222.333315 1360,219.83334 1361,218.5 C1362.16667,214.833315 1363.41666,212.00001 1364.75,210 C1364.91667,209.499998 1365.125,208.291676 1365.375,206.375 C1365.625,204.458324 1366.16666,203.333335 1367,203 C1367.5,200.666655 1367.91666,199.083337 1368.25,198.25 C1369.41667,193.083307 1371.58332,186.583372 1374.75,178.75 C1376.41667,174.416645 1377.25,170.083355 1377.25,165.75 C1377.25,160.583307 1376.00001,157.583337 1373.5,156.75 C1371.66666,156.08333 1370.75,154.75001 1370.75,152.75 C1370.75,151.583327 1371.08333,150.500005 1371.75,149.5 C1372.41667,148.499995 1373.33333,147.750002 1374.5,147.25 C1375.83334,146.749998 1377.16666,146.5 1378.5,146.5 C1380.33334,146.5 1382.04166,146.749998 1383.625,147.25 C1385.20834,147.750002 1385.91667,148.166665 1385.75,148.5 C1385.75,149.000002 1385.83333,149.374999 1386,149.625 C1386.16667,149.875001 1386.5,150 1387,150 C1387.5,149.33333 1388.74999,150.708316 1390.75,154.125 C1392.75001,157.541684 1393.75,159.91666 1393.75,161.25 C1393.41666,161.750002 1393.29167,162.083332 1393.375,162.25 C1393.45833,162.416668 1393.75,162.5 1394.25,162.5 C1395.41667,161.999998 1397.62498,160.875009 1400.875,159.125 C1404.12502,157.374991 1406.16666,156.000005 1407,155 L1408.75,154.125 C1409.58334,153.708331 1410.25,153.250002 1410.75,152.75 C1412.58334,152.08333 1414.66665,151.75 1417,151.75 C1419.66668,151.75 1422.24999,152.166663 1424.75,153 C1427.25001,153.833337 1429.33333,154.999992 1431,156.5 C1434.50002,161.000023 1436.25,165.24998 1436.25,169.25 C1436.25,172.750018 1435.08335,177.333305 1432.75,183 C1432.41666,184.000005 1431.37501,185.958319 1429.625,188.875 C1427.87499,191.791681 1426.66667,193.749995 1426,194.75 C1422.49998,200.250027 1418.33336,204.99998 1413.5,209 C1408.66664,213.00002 1403.08336,216.749982 1396.75,220.25 C1394.91666,221.416673 1393.04168,222.33333 1391.125,223 C1389.20832,223.66667 1387.58334,224 1386.25,224 C1385.58333,224 1384.91667,223.833335 1384.25,223.5 C1382.41666,222.16666 1380.75001,219.333355 1379.25,215 C1377.08332,220.166693 1375.83334,223.666657 1375.5,225.5 C1375.5,226.000002 1375.375,226.791661 1375.125,227.875 C1374.875,228.958339 1374.41667,229.749998 1373.75,230.25 C1373.75,230.416668 1373.625,230.83333 1373.375,231.5 C1373.125,232.16667 1372.58334,233.083327 1371.75,234.25 C1369.24999,241.250035 1367.66667,245.583325 1367,247.25 C1364.16665,255.25004 1362.5,260.499987 1362,263 C1361.66666,267.166687 1360.75001,271.541644 1359.25,276.125 C1357.74999,280.708356 1356.58334,283.249998 1355.75,283.75 Z M1385.5,212.5 C1387.00001,211.666663 1391.0833,208.708359 1397.75,203.625 C1404.4167,198.541641 1408.58333,195.00001 1410.25,193 C1413.41668,189.166648 1415.58333,185.58335 1416.75,182.25 C1418.41667,178.083313 1419.58333,175.00001 1420.25,173 C1420.75,171.999995 1421,170.83334 1421,169.5 C1421,167.666658 1420.5,166.250005 1419.5,165.25 C1418.5,165.083332 1416.29168,165.624994 1412.875,166.875 C1409.45832,168.125006 1405.79169,169.958321 1401.875,172.375 C1397.95831,174.791679 1394.66668,177.749982 1392,181.25 C1388.99998,185.25002 1386.62501,189.58331 1384.875,194.25 C1383.12499,198.91669 1382.25,202.91665 1382.25,206.25 C1382.25,210.416688 1383.33332,212.5 1385.5,212.5 Z" id="path-3"></path>
    </defs>
    <g id="Artboard" stroke="none" stroke-width="1" fill="none" fill-rule="evenodd">
        <g id="logo">
            <g id="header">
                <g id="Group" transform="translate(0.000000, 35.000000)">
                    <path d="M82.6573643,146.008065 L118.595349,131.653226 L183.283721,131.653226 L226.409302,131.653226 L251.565891,106.532258 L406.099225,99.3548387 C516.309044,104.139785 575.007752,106.532258 582.195349,106.532258 C589.382946,106.532258 652.873385,106.532258 772.666667,106.532258 L916.418605,106.532258 L1067.35814,106.532258 L1175.17209,99.3548387 L1484.23876,85 L1617.2093,85 L1814.86822,85 L2044.87132,99.3548387 C2083.58301,104.929313 2109.93753,110.312377 2123.93488,115.504032 C2137.93224,120.695687 2153.50536,130.863698 2170.65426,146.008065 C2157.07769,138.830645 2146.2963,135.241935 2138.31008,135.241935 C2130.32386,135.241935 2118.34453,138.830645 2102.37209,146.008065 C2132.63667,149.231842 2161.38705,154.016788 2188.62326,160.362903 C2207.51149,164.763917 2229.92116,175.680715 2264.09302,185.483871 C2274.16157,188.372317 2292.13057,191.961026 2318,196.25 C2313.42741,212.670288 2302.64601,225.82889 2285.65581,235.725806 C2273.88017,242.585205 2254.68175,262.769162 2228.15504,271.612903 C2220.3239,274.223727 2207.14664,274.223727 2188.62326,271.612903 L2138.31008,278.790323 C2090.22243,275.820993 2054.28445,275.820993 2030.49612,278.790323 C2006.7078,281.759653 1994.72847,287.740835 1994.55814,296.733871 C2010.08653,294.223099 2020.86793,294.223099 2026.90233,296.733871 C2032.93672,299.244643 2036.53052,305.225826 2037.68372,314.677419 C2093.6266,317.430569 2135.55425,321.019279 2163.46667,325.443548 C2191.37909,329.867818 2224.92121,338.241474 2264.09302,350.564516 C2228.96862,348.939452 2203.81203,348.939452 2188.62326,350.564516 C2173.43448,352.18958 2165.04895,355.77829 2163.46667,361.330645 C2144.93682,352.314733 2131.75956,348.726023 2123.93488,350.564516 C2116.11021,352.403009 2108.92261,360.776665 2102.37209,375.685484 L1958.62016,393.629032 L1840.02481,400.806452 L1850.8062,411.572581 L1750.17984,411.572581 L1850.8062,425.927419 L2037.68372,433.104839 L2012.52713,440.282258 L2080.8093,447.459677 L1965.80775,468.991935 L1908.30698,447.459677 L1829.24341,440.282258 L1757.36744,447.459677 L1617.2093,440.282258 L1520.17674,447.459677 L1649.55349,454.637097 L1768.14884,461.814516 L1689.08527,476.169355 L1663.92868,476.169355 L1750.17984,483.346774 L1714.24186,494.112903 L1663.92868,504.879032 L1595.64651,504.879032 L1415.95659,504.879032 L1635.17829,519.233871 L1577.67752,530 L1448.30078,530 L1311.73643,504.879032 L1175.17209,519.233871 L1092.51473,519.233871 L934.387597,530 L952.356589,519.233871 L1088.92093,504.879032 L1128.45271,476.169355 L826.573643,476.169355 C790.635659,495.30914 772.666667,504.879032 772.666667,504.879032 C772.666667,504.879032 749.905943,504.879032 704.384496,504.879032 L582.195349,504.879032 L524.694574,494.112903 L488.756589,483.346774 C443.235142,497.701613 418.078553,504.879032 413.286822,504.879032 C408.49509,504.879032 372.557106,504.879032 305.472868,504.879032 L197.658915,483.346774 L276.722481,461.814516 L262.347287,440.282258 L143.751938,411.572581 L158.127132,375.685484 L244.378295,361.330645 L276.722481,350.564516 L161.72093,325.443548 C168.681432,315.646883 171.077298,309.6657 168.908527,307.5 C166.739756,305.3343 158.354226,305.3343 143.751938,307.5 L104.220155,307.5 L118.595349,264.435484 C86.3333963,266.04042 63.5726728,266.04042 50.3131783,264.435484 C37.0536838,262.830548 20.2826244,258.045602 0,250.080645 C26.0390644,234.543257 47.601855,223.777128 64.6883721,217.782258 C81.7748891,211.787388 104.535613,207.002442 132.970543,203.427419 L143.751938,178.306452 C111.769284,175.753273 91.4044265,172.164563 82.6573643,167.540323 C73.9103022,162.916082 73.9103022,155.738663 82.6573643,146.008065 Z" id="background" fill-opacity="0.5" fill="#E2D2D4"></path>
                    <g id="flower" transform="translate(1028.000000, 0.000000)">
                        <path d="M102.260665,344 C108.933851,320.062532 113.099235,300.182835 114.756815,284.360909 C116.414395,268.538983 116.414395,248.659286 114.756815,224.721818 C104.330267,181.062513 98.7764229,148.403011 98.0952817,126.743312 C97.4141406,105.083613 100.384957,81.1691755 107.007732,55" id="Path-150" stroke="#000000" stroke-width="4"></path>
                        <path d="M114.993744,38.125 C116.66371,35.9587235 119.235844,33.6567465 122.710146,31.219069 C124.594522,29.8969324 128.018217,27.8239094 132.981233,25 C133.18782,38.3431268 131.688862,47.0931268 128.48436,51.25 C125.279859,55.4068732 117.785072,58.3235399 106,60 C108.967241,49.345346 111.965155,42.0536793 114.993744,38.125 Z" id="Path-151" fill="#000000"></path>
                        <path d="M107,56 C103.570571,39.8609132 99.170571,28.3737338 93.8,21.5384615 C88.429429,14.7031893 78.1627623,7.52370214 63,0 C66.2791964,18.8196765 70.6791964,31.7427534 76.2,38.7692308 C81.7208036,45.7957081 91.9874703,51.5392979 107,56 Z" id="Path-152" fill="#000000"></path>
                        <path d="M98,149 C104.502731,121.270822 111.407492,102.493044 118.714286,92.6666667 C126.021079,82.8402896 138.44965,75.6180673 156,71 C151.429665,94.066948 145.905855,109.955837 139.428571,118.666667 C132.951288,127.377496 119.141764,137.488608 98,149 Z" id="Path-153" fill="#000000"></path>
                        <path d="M76.5,103.848688 C66.7850015,94.4932383 46.9516682,85.877009 17,78 C40.2227273,116.44689 57.2227273,140.85954 68,151.237949 C78.7772727,161.616359 90.110606,164.488435 102,159.854179 C94.7149985,131.872634 86.2149985,113.204138 76.5,103.848688 Z" id="Path-154" fill="#000000"></path>
                        <path d="M115.044121,216.993278 C114.515602,202.787302 118.735373,191.788423 127.703434,183.996639 C135.017644,177.641783 150.668439,173.995173 174.120916,163.37374 C177.656218,161.77263 183.28258,157.64805 191,151 C190.408643,166.999285 189.002053,177.998165 186.780229,183.996639 C180.542024,200.838532 168.470026,210.904101 161.461603,216.993278 C150.708958,226.335574 135.236464,226.335574 115.044121,216.993278 Z" id="Path-155" fill="#000000"></path>
                        <path d="M116,241.730267 C93.8697768,210.266362 75.2524929,190.013665 60.1481481,180.972176 C45.0438034,171.930686 24.9944207,169.037444 0,172.292448 C9.23904594,195.932513 20.6958361,211.845347 34.3703704,220.030949 C42.3802462,224.825676 72.9242714,246.268879 90.2222222,250.409995 C98.3777364,252.362418 106.970329,249.469176 116,241.730267 Z" id="Path-156" fill="#000000"></path>
                    </g>
                </g>
                <g id="Eko" fill="#000000">
                    <use xlink:href="#path-1"></use>
                    <use xlink:href="#path-1"></use>
                </g>
                <g id="Mom" fill="#000000">
                    <use xlink:href="#path-2"></use>
                    <use xlink:href="#path-2"></use>
                </g>
            </g>
            <g id="subpart" transform="translate(447.000000, 606.000000)" fill="#000000">
                <g id="Family-Workshop">
                    <g>
                        <use xlink:href="#path-3"></use>
                        <use xlink:href="#path-3"></use>
                    </g>
                </g>
            </g>
        </g>
    </g>
</svg>