<?xml version="1.0" encoding="utf-8"?>
<!-- Generator: Adobe Illustrator 21.0.0, SVG Export Plug-In . SVG Version: 6.00 Build 0)  -->
<svg version="1.1" id="Elements" xmlns="http://www.w3.org/2000/svg" xmlns:xlink="http://www.w3.org/1999/xlink" x="0px" y="0px"
	 viewBox="0 0 26 20" style="enable-background:new 0 0 26 20;" xml:space="preserve">
<style type="text/css">
	.st0{fill:#2E2E2E;}
</style>
<path class="st0" d="M0.8,0h24.3C25.6,0,26,0.4,26,0.9v0.3C26,1.7,25.6,2,25.2,2H0.8C0.4,2,0,1.7,0,1.2V0.9C0,0.4,0.4,0,0.8,0z"/>
<path class="st0" d="M0.8,18h24.3c0.5,0,0.8,0.4,0.8,0.8v0.3c0,0.5-0.4,0.8-0.8,0.8H0.8C0.4,20,0,19.7,0,19.2v-0.3
	C0,18.4,0.4,18,0.8,18z"/>
<path class="st0" d="M0.8,9.2h24.3c0.5,0,0.8,0.4,0.8,0.8v0.3c0,0.5-0.4,0.8-0.8,0.8H0.8c-0.5,0-0.8-0.4-0.8-0.8V10
	C0,9.5,0.4,9.2,0.8,9.2z"/>
</svg>
