<?xml version="1.0" encoding="utf-8"?>
<!-- Generator: Adobe Illustrator 21.0.0, SVG Export Plug-In . SVG Version: 6.00 Build 0)  -->
<svg version="1.1" id="PRINT" xmlns="http://www.w3.org/2000/svg" xmlns:xlink="http://www.w3.org/1999/xlink" x="0px" y="0px"
	 viewBox="0 0 479.8 479.8" style="enable-background:new 0 0 479.8 479.8;" xml:space="preserve">
<style type="text/css">
	.st0{fill:#2E2E2E;}
</style>
<g>
	<path class="st0" d="M0,240.1C-0.1,107.6,107.3,0,239.8,0c132.5,0,240,107.5,240,239.9c0,132.5-107.5,239.9-240.1,239.9
		C107.5,479.8,0.1,372.5,0,240.1z M18.8,239.8C18.7,362,117.5,460.9,239.8,461C362,461.2,460.9,362.4,461,240.1
		c0.1-122.2-98.8-221.2-221-221.3C117.9,18.7,18.9,117.6,18.8,239.8z"/>
</g>
<g>
	<path class="st0" d="M345.9,150.7c-0.3,5.3-2.2,11.8-3.6,18.5c-8.8,42-17.8,83.9-26.7,125.9c-3.1,14.7-6.3,29.5-9.5,44.2
		c0,0.2,0,0.4-0.1,0.6c-3.7,13.9-13.3,14.5-22.4,7.9c-18.7-13.5-37.2-27.2-55.6-41c-1.8-1.4-2.8-1.4-4.5,0.3
		c-9.2,9-18.5,17.9-27.8,26.8c-2.3,2.2-4.8,3.8-8,4.3c-1.9,0.3-2.7-0.1-2.5-2.3c0.7-8.9,1.3-17.9,1.9-26.8c0.7-9.6,1.4-19.2,2-28.7
		c0.1-1.6,0.5-2.8,1.7-3.9c35.4-31.9,70.8-63.9,106.2-95.9c1-0.9,1.9-1.8,2.8-2.7c0.7-0.7,1.2-1.6,0.7-2.5c-0.5-1.1-1.6-1.3-2.6-1.2
		c-2.8,0.2-5.1,1.6-7.4,3c-12.6,8-25.2,15.9-37.9,23.8c-31.3,19.7-62.6,39.4-93.9,59.2c-1.9,1.2-3.5,1.5-5.7,0.8
		c-18.1-5.8-36.2-11.4-54.3-17c-2.6-0.8-5.1-1.7-7.3-3.4c-3.8-2.9-4.2-6.5-0.9-10c2.8-3,6.5-4.6,10.2-6.1
		c17.4-6.7,34.7-13.4,52.1-20.1c57.9-22.3,115.8-44.6,173.7-66.9c3.2-1.2,6.5-2.4,10-1.8C342.7,136.7,345.9,141.5,345.9,150.7z"/>
</g>
</svg>
