<svg xmlns="http://www.w3.org/2000/svg" viewBox="0 0 336.28 193.67"><defs><style>.cls-1{fill:#fff;}</style></defs><title>Elements</title><g id="Слой_2" data-name="Слой 2"><g id="Elements"><path id="_Контур_" data-name="&lt;Контур&gt;" class="cls-1" d="M1,134.87c1.33-.4,5.74-3.21,7.6-.05,0,1.31-1.88,2.27-2.32,2.77-1.1,1.27-.78,1.63-.93,4.6-.14,2.58-2.31,4.76.9,6.37a4.29,4.29,0,0,0,3.23.16c.94-.24,5.09-3.25,6.1-1.85,2,2.85-3.47,4.5-3.44,6.69,1.63,1.7,3.11-.54,4.44-.94s3.17-.1,4.38-.47c.75,1.58-1.2,2.61-1.15,3.26,0-.23,4,.06,4.56,0,1.78-.09,3.35-1,5.23-1.58,2.21-.67,4.39-2.07,6.79-2.06.7,0,3.14-.24,2.62,3.19.75.36,2.28-1.41,2.91.77.51,1.76-1.43,1.61-1.78,1.82-.56.33-2.09.88-2.6,1.65-.08.12-1,3-1,3.18,0,1.42,2.3.75,2.35.74,1.21,2.53-3.23,8.15-3.19,10.25.06,3.32,3.42,4.1,4.5,7.15.49,1.41-.35,2.46.7,5-.2-.5,2,2.51,1.78,2.35.63.38,1.2-.6,1.8-.53a8.18,8.18,0,0,0,1.06,1.36c1.69.58,1.83.08,3.67,1.52,1.38,1.07,3.38,3.41,4.66,3.41.93,0,2.26-1.17,3.3-1.48.86-.26,1.84.64,2.87.78a14.22,14.22,0,0,0,3.08-.05c1.67-.18,3.43.35,5,.26,6.13-.34,11.78-2.78,17.06-5.61,3.93-2.11,7.62-5.28,11.84-6.56,5.07-1.54,9.4-5.49,14.53-7,4.49-1.36,8.24-5.55,12.35-8.05,5.5-3.36,12.42-3.59,18.62-3.93,3.36-.19,6.35-2.13,9.61-2.48a64.4,64.4,0,0,0,8.55-1.3c12.43-3.16,25.28-5.49,37.63-9.28a321.12,321.12,0,0,0,56.22-23.37c9.26-5,17.64-11.18,26.91-16.11,4.77-2.54,9.36-5.94,14.82-6.34a40.64,40.64,0,0,0,8.9-1.68c.64-.19,1.95-.09,2.36-.71s-.08-2,.12-2.36c.3-.52,2.17-1.58,2.2-2.08-.19-.48-.36-.63-.49-.44-.88-2,4.12-3.38,4.66-3.57,1.23-.45,3-1.38,4.14-1.69.41-.11,2.08-.49,2.14-.46-.43-.21-4.39-2-4.39-2-.16-3.15,5.06-2.73,6.19-3.08a14.79,14.79,0,0,0,2.91-.88c.15-.08-.23-1.67-.26-1.65.52-.28,1.2.83,1.93.29a9.14,9.14,0,0,0,.66-1.92c.6-1.69.9-2,2.21-2.42,1.7-.51,6.27.76,6.83-2.58-1.17-1.21-5.4-1-5.29-6,.06-2.89,1.84.75.57-2.48-.9-2.27-1.67-2.24-2.58-2.67-1.49-.71-3.44.89-5.16-1.3-1.42-1.81-1.19-4.1-1.69-5.28a5.54,5.54,0,0,0-1.18-1c-.61-2.86.05-.37.07-2.43,0-.67-5.16-.68-5.49-1-3.29-3.24,2.92-4,3.13-3.8-2.09-2.26-3.79,0-5.79-1.94-.79-.78-1.54-2.81-2.59-3.51,0,0-.78.72-.95.69s-.63-.8-.82-.89a9.19,9.19,0,0,0-3.62-.79c-1.39,0-2.79.56-4.28.44-.35,0-1.89-.9-2.44-1-.76-.13-2.92.8-3.89-1-3.1-5.61,5.56-4.76,6.58-5.06a11,11,0,0,1,3.61-.64c.49,0,4.72.63,2.29-2.64-.7-.93-2.93.52-2.58-3.49,0-.43,3.23-2,2.87-2.57-1.87-3.07-4.56-.4-6.94-2.87.22-1.41,1.44-.17,1.69-1.49-3.29-3.58,0-4.12.68-4.19.83-.08,3.44,0,1.2-2.82-.1-.12-1.54-.34-1.91-.56a24.52,24.52,0,0,0-2.22-2.35c-.81-.37-3.62.74-3.19-2.24-1.33-1.39-2.41-.69-3.59-1.05s-2.43-1.13-3.58-1.5c-4.4-1.44,1.5-1.72-1.34-6.29-1-1.57-4.58-1.07-5.44-1.16a46.75,46.75,0,0,0-6.54-.61c-4.8.16-9.94-1.3-14.49.07C254.61,2.64,247.18,2.2,240.77,6c-5.66,3.34-12.3,6.14-18.67,6.67-2.11.18-3.77-2.35-5.81-2.24a20.42,20.42,0,0,1-7.12-.85C196.9,6,186.65,12.5,176.07,15.23c-3,.78-5.62,1.93-8.18,2.49-.75.16-.86-.44-1.35-.4-.9.06-1.35,1.86-1.84,2-.9.28-2.24-1.35-3.33-1.37-.25,0-.86.83-1.29.83s-1.33-.74-1.85-.9a1.69,1.69,0,0,0-2.22.86c-1.41,2.19-4.12,1.14-4.87,5.3,2.92,3.33,1,3.62-.55,4.09l-5.28,1.6c-4.07,1.24-8.06,3.31-12.26,4.58-5.71,1.74-10.45,6-15.77,9.11-6.47,3.72-13.8,4.17-20.14,7.83-6.08,3.53-12.6,7.28-19.33,9.32S65.08,65.33,60.37,71.91c-1.35,1.88-2.64,3-3.13,6.81-.31,2.43.39,6.24-.28,8.08a10.36,10.36,0,0,1-2,2.72c-4,5-9.37,6.61-14.38,9.17-2.62,1.34-5,3.51-7.54,4.87s-4.55,4.73-7,6.46c-4.31,3-7.89,8-11.29,12.93-.93,1.36-2.2.53-3.2,1.91-.82,1.12-1.34,3.28-2.22,4-1.56,1.33-3.34,1.42-5,2.38-1.1.64-4,.37-4.27,2.54l1,1.05C2.3,134.47.62,134.59,1,134.87Z"/></g></g></svg>