<?xml version="1.0" encoding="UTF-8"?>
<svg width="1235px" height="800px" viewBox="0 0 1235 800" version="1.1" xmlns="http://www.w3.org/2000/svg" xmlns:xlink="http://www.w3.org/1999/xlink">
    <!-- Generator: Sketch 52.5 (67469) - http://www.bohemiancoding.com/sketch -->
    <title>en</title>
    <desc>Created with Sketch.</desc>
    <g id="Page-1" stroke="none" stroke-width="1" fill="none" fill-rule="evenodd">
        <g id="en">
            <rect id="Rectangle" fill="#B22234" x="0" y="0" width="1235" height="800"></rect>
            <path d="M0,92.1026325 L1235,92.1026325 M1235,215.261579 L0,215.261579 M0,338.420526 L1235,338.420526 M1235,461.579474 L0,461.579474 M0,584.738421 L1235,584.738421 M1235,707.897368 L0,707.897368" id="Shape" stroke="#FFFFFF" stroke-width="50" fill="#000000" fill-rule="nonzero"></path>
            <rect id="Rectangle" fill="#3C3B6E" x="0" y="0" width="558" height="402"></rect>
            <g id="Group" transform="translate(24.000000, 18.000000)" fill="#FFFFFF">
                <g id="s18">
                    <g id="s9">
                        <g id="s5">
                            <g id="s4">
                                <polygon id="s" points="21.6740576 0 34.9676487 41.4113419 0.164575455 15.8177252 43.1835398 15.8177252 8.38046663 41.4113419"></polygon>
                                <g id="s-link" transform="translate(0.000000, 80.120694)">
                                    <polygon id="s" points="21.6740576 0 34.9676487 41.4113419 0.164575455 15.8177252 43.1835398 15.8177252 8.38046663 41.4113419"></polygon>
                                </g>
                                <g id="s-link" transform="translate(0.000000, 160.241388)">
                                    <polygon id="s" points="21.6740576 0 34.9676487 41.4113419 0.164575455 15.8177252 43.1835398 15.8177252 8.38046663 41.4113419"></polygon>
                                </g>
                                <g id="s-link" transform="translate(0.000000, 240.362082)">
                                    <polygon id="s" points="21.6740576 0 34.9676487 41.4113419 0.164575455 15.8177252 43.1835398 15.8177252 8.38046663 41.4113419"></polygon>
                                </g>
                            </g>
                            <g id="s-link" transform="translate(0.000000, 320.482775)">
                                <polygon id="s" points="21.6740576 0 34.9676487 41.4113419 0.164575455 15.8177252 43.1835398 15.8177252 8.38046663 41.4113419"></polygon>
                            </g>
                        </g>
                        <g id="s4-link" transform="translate(46.552106, 40.060347)">
                            <g id="s4">
                                <polygon id="s" points="21.6740576 0 34.9676487 41.4113419 0.164575455 15.8177252 43.1835398 15.8177252 8.38046663 41.4113419"></polygon>
                                <g id="s-link" transform="translate(0.000000, 80.120694)">
                                    <polygon id="s" points="21.6740576 0 34.9676487 41.4113419 0.164575455 15.8177252 43.1835398 15.8177252 8.38046663 41.4113419"></polygon>
                                </g>
                                <g id="s-link" transform="translate(0.000000, 160.241388)">
                                    <polygon id="s" points="21.6740576 0 34.9676487 41.4113419 0.164575455 15.8177252 43.1835398 15.8177252 8.38046663 41.4113419"></polygon>
                                </g>
                                <g id="s-link" transform="translate(0.000000, 240.362082)">
                                    <polygon id="s" points="21.6740576 0 34.9676487 41.4113419 0.164575455 15.8177252 43.1835398 15.8177252 8.38046663 41.4113419"></polygon>
                                </g>
                            </g>
                        </g>
                    </g>
                    <g id="s9-link" transform="translate(93.104213, 0.000000)">
                        <g id="s9">
                            <g id="s5">
                                <g id="s4">
                                    <polygon id="s" points="21.6740576 0 34.9676487 41.4113419 0.164575455 15.8177252 43.1835398 15.8177252 8.38046663 41.4113419"></polygon>
                                    <g id="s-link" transform="translate(0.000000, 80.120694)">
                                        <polygon id="s" points="21.6740576 0 34.9676487 41.4113419 0.164575455 15.8177252 43.1835398 15.8177252 8.38046663 41.4113419"></polygon>
                                    </g>
                                    <g id="s-link" transform="translate(0.000000, 160.241388)">
                                        <polygon id="s" points="21.6740576 0 34.9676487 41.4113419 0.164575455 15.8177252 43.1835398 15.8177252 8.38046663 41.4113419"></polygon>
                                    </g>
                                    <g id="s-link" transform="translate(0.000000, 240.362082)">
                                        <polygon id="s" points="21.6740576 0 34.9676487 41.4113419 0.164575455 15.8177252 43.1835398 15.8177252 8.38046663 41.4113419"></polygon>
                                    </g>
                                </g>
                                <g id="s-link" transform="translate(0.000000, 320.482775)">
                                    <polygon id="s" points="21.6740576 0 34.9676487 41.4113419 0.164575455 15.8177252 43.1835398 15.8177252 8.38046663 41.4113419"></polygon>
                                </g>
                            </g>
                            <g id="s4-link" transform="translate(46.552106, 40.060347)">
                                <g id="s4">
                                    <polygon id="s" points="21.6740576 0 34.9676487 41.4113419 0.164575455 15.8177252 43.1835398 15.8177252 8.38046663 41.4113419"></polygon>
                                    <g id="s-link" transform="translate(0.000000, 80.120694)">
                                        <polygon id="s" points="21.6740576 0 34.9676487 41.4113419 0.164575455 15.8177252 43.1835398 15.8177252 8.38046663 41.4113419"></polygon>
                                    </g>
                                    <g id="s-link" transform="translate(0.000000, 160.241388)">
                                        <polygon id="s" points="21.6740576 0 34.9676487 41.4113419 0.164575455 15.8177252 43.1835398 15.8177252 8.38046663 41.4113419"></polygon>
                                    </g>
                                    <g id="s-link" transform="translate(0.000000, 240.362082)">
                                        <polygon id="s" points="21.6740576 0 34.9676487 41.4113419 0.164575455 15.8177252 43.1835398 15.8177252 8.38046663 41.4113419"></polygon>
                                    </g>
                                </g>
                            </g>
                        </g>
                    </g>
                </g>
                <g id="s18-link" transform="translate(186.208426, 0.000000)">
                    <g id="s18">
                        <g id="s9">
                            <g id="s5">
                                <g id="s4">
                                    <polygon id="s" points="21.6740576 0 34.9676487 41.4113419 0.164575455 15.8177252 43.1835398 15.8177252 8.38046663 41.4113419"></polygon>
                                    <g id="s-link" transform="translate(0.000000, 80.120694)">
                                        <polygon id="s" points="21.6740576 0 34.9676487 41.4113419 0.164575455 15.8177252 43.1835398 15.8177252 8.38046663 41.4113419"></polygon>
                                    </g>
                                    <g id="s-link" transform="translate(0.000000, 160.241388)">
                                        <polygon id="s" points="21.6740576 0 34.9676487 41.4113419 0.164575455 15.8177252 43.1835398 15.8177252 8.38046663 41.4113419"></polygon>
                                    </g>
                                    <g id="s-link" transform="translate(0.000000, 240.362082)">
                                        <polygon id="s" points="21.6740576 0 34.9676487 41.4113419 0.164575455 15.8177252 43.1835398 15.8177252 8.38046663 41.4113419"></polygon>
                                    </g>
                                </g>
                                <g id="s-link" transform="translate(0.000000, 320.482775)">
                                    <polygon id="s" points="21.6740576 0 34.9676487 41.4113419 0.164575455 15.8177252 43.1835398 15.8177252 8.38046663 41.4113419"></polygon>
                                </g>
                            </g>
                            <g id="s4-link" transform="translate(46.552106, 40.060347)">
                                <g id="s4">
                                    <polygon id="s" points="21.6740576 0 34.9676487 41.4113419 0.164575455 15.8177252 43.1835398 15.8177252 8.38046663 41.4113419"></polygon>
                                    <g id="s-link" transform="translate(0.000000, 80.120694)">
                                        <polygon id="s" points="21.6740576 0 34.9676487 41.4113419 0.164575455 15.8177252 43.1835398 15.8177252 8.38046663 41.4113419"></polygon>
                                    </g>
                                    <g id="s-link" transform="translate(0.000000, 160.241388)">
                                        <polygon id="s" points="21.6740576 0 34.9676487 41.4113419 0.164575455 15.8177252 43.1835398 15.8177252 8.38046663 41.4113419"></polygon>
                                    </g>
                                    <g id="s-link" transform="translate(0.000000, 240.362082)">
                                        <polygon id="s" points="21.6740576 0 34.9676487 41.4113419 0.164575455 15.8177252 43.1835398 15.8177252 8.38046663 41.4113419"></polygon>
                                    </g>
                                </g>
                            </g>
                        </g>
                        <g id="s9-link" transform="translate(93.104213, 0.000000)">
                            <g id="s9">
                                <g id="s5">
                                    <g id="s4">
                                        <polygon id="s" points="21.6740576 0 34.9676487 41.4113419 0.164575455 15.8177252 43.1835398 15.8177252 8.38046663 41.4113419"></polygon>
                                        <g id="s-link" transform="translate(0.000000, 80.120694)">
                                            <polygon id="s" points="21.6740576 0 34.9676487 41.4113419 0.164575455 15.8177252 43.1835398 15.8177252 8.38046663 41.4113419"></polygon>
                                        </g>
                                        <g id="s-link" transform="translate(0.000000, 160.241388)">
                                            <polygon id="s" points="21.6740576 0 34.9676487 41.4113419 0.164575455 15.8177252 43.1835398 15.8177252 8.38046663 41.4113419"></polygon>
                                        </g>
                                        <g id="s-link" transform="translate(0.000000, 240.362082)">
                                            <polygon id="s" points="21.6740576 0 34.9676487 41.4113419 0.164575455 15.8177252 43.1835398 15.8177252 8.38046663 41.4113419"></polygon>
                                        </g>
                                    </g>
                                    <g id="s-link" transform="translate(0.000000, 320.482775)">
                                        <polygon id="s" points="21.6740576 0 34.9676487 41.4113419 0.164575455 15.8177252 43.1835398 15.8177252 8.38046663 41.4113419"></polygon>
                                    </g>
                                </g>
                                <g id="s4-link" transform="translate(46.552106, 40.060347)">
                                    <g id="s4">
                                        <polygon id="s" points="21.6740576 0 34.9676487 41.4113419 0.164575455 15.8177252 43.1835398 15.8177252 8.38046663 41.4113419"></polygon>
                                        <g id="s-link" transform="translate(0.000000, 80.120694)">
                                            <polygon id="s" points="21.6740576 0 34.9676487 41.4113419 0.164575455 15.8177252 43.1835398 15.8177252 8.38046663 41.4113419"></polygon>
                                        </g>
                                        <g id="s-link" transform="translate(0.000000, 160.241388)">
                                            <polygon id="s" points="21.6740576 0 34.9676487 41.4113419 0.164575455 15.8177252 43.1835398 15.8177252 8.38046663 41.4113419"></polygon>
                                        </g>
                                        <g id="s-link" transform="translate(0.000000, 240.362082)">
                                            <polygon id="s" points="21.6740576 0 34.9676487 41.4113419 0.164575455 15.8177252 43.1835398 15.8177252 8.38046663 41.4113419"></polygon>
                                        </g>
                                    </g>
                                </g>
                            </g>
                        </g>
                    </g>
                </g>
                <g id="s9-link" transform="translate(372.416851, 0.000000)">
                    <g id="s9">
                        <g id="s5">
                            <g id="s4">
                                <polygon id="s" points="21.6740576 0 34.9676487 41.4113419 0.164575455 15.8177252 43.1835398 15.8177252 8.38046663 41.4113419"></polygon>
                                <g id="s-link" transform="translate(0.000000, 80.120694)">
                                    <polygon id="s" points="21.6740576 0 34.9676487 41.4113419 0.164575455 15.8177252 43.1835398 15.8177252 8.38046663 41.4113419"></polygon>
                                </g>
                                <g id="s-link" transform="translate(0.000000, 160.241388)">
                                    <polygon id="s" points="21.6740576 0 34.9676487 41.4113419 0.164575455 15.8177252 43.1835398 15.8177252 8.38046663 41.4113419"></polygon>
                                </g>
                                <g id="s-link" transform="translate(0.000000, 240.362082)">
                                    <polygon id="s" points="21.6740576 0 34.9676487 41.4113419 0.164575455 15.8177252 43.1835398 15.8177252 8.38046663 41.4113419"></polygon>
                                </g>
                            </g>
                            <g id="s-link" transform="translate(0.000000, 320.482775)">
                                <polygon id="s" points="21.6740576 0 34.9676487 41.4113419 0.164575455 15.8177252 43.1835398 15.8177252 8.38046663 41.4113419"></polygon>
                            </g>
                        </g>
                        <g id="s4-link" transform="translate(46.552106, 40.060347)">
                            <g id="s4">
                                <polygon id="s" points="21.6740576 0 34.9676487 41.4113419 0.164575455 15.8177252 43.1835398 15.8177252 8.38046663 41.4113419"></polygon>
                                <g id="s-link" transform="translate(0.000000, 80.120694)">
                                    <polygon id="s" points="21.6740576 0 34.9676487 41.4113419 0.164575455 15.8177252 43.1835398 15.8177252 8.38046663 41.4113419"></polygon>
                                </g>
                                <g id="s-link" transform="translate(0.000000, 160.241388)">
                                    <polygon id="s" points="21.6740576 0 34.9676487 41.4113419 0.164575455 15.8177252 43.1835398 15.8177252 8.38046663 41.4113419"></polygon>
                                </g>
                                <g id="s-link" transform="translate(0.000000, 240.362082)">
                                    <polygon id="s" points="21.6740576 0 34.9676487 41.4113419 0.164575455 15.8177252 43.1835398 15.8177252 8.38046663 41.4113419"></polygon>
                                </g>
                            </g>
                        </g>
                    </g>
                </g>
                <g id="s5-link" transform="translate(465.521064, 0.000000)">
                    <g id="s5">
                        <g id="s4">
                            <polygon id="s" points="21.6740576 0 34.9676487 41.4113419 0.164575455 15.8177252 43.1835398 15.8177252 8.38046663 41.4113419"></polygon>
                            <g id="s-link" transform="translate(0.000000, 80.120694)">
                                <polygon id="s" points="21.6740576 0 34.9676487 41.4113419 0.164575455 15.8177252 43.1835398 15.8177252 8.38046663 41.4113419"></polygon>
                            </g>
                            <g id="s-link" transform="translate(0.000000, 160.241388)">
                                <polygon id="s" points="21.6740576 0 34.9676487 41.4113419 0.164575455 15.8177252 43.1835398 15.8177252 8.38046663 41.4113419"></polygon>
                            </g>
                            <g id="s-link" transform="translate(0.000000, 240.362082)">
                                <polygon id="s" points="21.6740576 0 34.9676487 41.4113419 0.164575455 15.8177252 43.1835398 15.8177252 8.38046663 41.4113419"></polygon>
                            </g>
                        </g>
                        <g id="s-link" transform="translate(0.000000, 320.482775)">
                            <polygon id="s" points="21.6740576 0 34.9676487 41.4113419 0.164575455 15.8177252 43.1835398 15.8177252 8.38046663 41.4113419"></polygon>
                        </g>
                    </g>
                </g>
            </g>
        </g>
    </g>
</svg>